<svg xmlns="http://www.w3.org/2000/svg" viewBox="0 0 180 157">
<!-- SVG created with Arrow, by QuiverAI (https://quiver.ai) -->
  <style type="text/css">.cls-0 {fill:#D8D8D8;}
.cls-1 {fill:url(#SVGID_1_);}
.cls-2 {fill:#B7B5B2;}
.cls-3 {fill:#DBD8D5;}
.cls-4 {fill:#595249;}
.cls-5 {fill:#9E9994;}
.cls-6 {fill:url(#SVGID_2_);}
.cls-7 {fill:#CABEB6;}
.cls-8 {fill:#A69E95;}
.cls-9 {fill:#D4D1CC;}
.cls-10 {fill:#EBEAE7;}
.cls-11 {fill:none;stroke:#9E6C4A;stroke-width:0.3209;stroke-miterlimit:10;}
.cls-12 {fill:none;stroke:#8C4822;stroke-width:0.3765;stroke-linecap:round;stroke-linejoin:round;stroke-miterlimit:10;}
.cls-13 {fill:none;stroke:#9E6C4A;stroke-width:0.3765;stroke-linecap:round;stroke-linejoin:round;stroke-miterlimit:10;}
.cls-14 {fill:none;stroke:#FFFFFF;stroke-width:0.3765;stroke-linecap:round;stroke-linejoin:round;stroke-miterlimit:10;}
.cls-15 {fill:url(#SVGID_3_);}
.cls-16 {fill:none;stroke:#9E6C4A;stroke-width:0.3598;stroke-linecap:round;stroke-linejoin:round;stroke-miterlimit:10;}
.cls-17 {fill:none;stroke:#FFFFFF;stroke-width:0.3598;stroke-linecap:round;stroke-linejoin:round;stroke-miterlimit:10;}
.cls-18 {fill:url(#SVGID_4_);}
.cls-19 {fill:none;stroke:#8C4822;stroke-width:0.3598;stroke-linecap:round;stroke-linejoin:round;stroke-miterlimit:10;}
.cls-20 {fill:url(#SVGID_5_);}
.cls-21 {fill:none;stroke:#FFFFFF;stroke-width:0.42;stroke-linecap:round;stroke-linejoin:round;stroke-miterlimit:10;}
.cls-22 {fill:url(#SVGID_6_);}</style>
  <rect class="cls-0" width="180" height="157"/>
  <linearGradient id="SVGID_1_" x1="2.151" x2="174.8" y1="124.2" y2="124.2" gradientUnits="userSpaceOnUse">
    <stop stop-color="#948F89" offset="0"/>
    <stop stop-color="#CCCAC8" offset="1"/>
  </linearGradient>
  <path class="cls-1" d="m174.8 106.5-83.8 49.5-88.8-50.4 45.8-15.7 126.8 16.6z"/>
  <path class="cls-2" d="m178.5 99.3v2l-86.2 49.5-0.1-2.3 86.3-49.2z"/>
  <path class="cls-3" d="m92.3 148.5-87.5-49.4 56.8-30.1 36.8 4.6 80.1 25.7-86.2 49.2z"/>
  <path class="cls-4" d="m92.3 151.3-2.1 2-84.8-46.8 4.2-2.6 82.7 46.7"/>
  <path class="cls-5" d="m92.3 150.8-87.5-49.5v-2.2l87.5 49.4v2.3z"/>
  <linearGradient id="SVGID_2_" x1="19.3" x2="22.5" y1="98.7" y2="98.7" gradientUnits="userSpaceOnUse">
    <stop stop-color="#A79991" offset="0"/>
    <stop stop-color="#C7B5A6" offset="1"/>
  </linearGradient>
  <path class="cls-6" d="m19.3 108.2v1.3l3.2 1.5-0.3-1.3-2.9-1.5z"/>
  <path class="cls-7" d="m22.5 109.5v1.5l24.9-12.7-2.5-3.9-22.4 15.1z"/>
  <linearGradient id="SVGID_3_" x1="19.3" x2="45.4" y1="96.7" y2="96.7" gradientUnits="userSpaceOnUse">
    <stop stop-color="#9C8575" offset="0"/>
    <stop stop-color="#D3B6A0" offset="1"/>
  </linearGradient>
  <path class="cls-15" d="m19.3 108.2 26.1-13.7v1.1l-23.4 14.4-2.7-1v-0.8z"/>
  <path class="cls-4" d="m115.2 136.1v1.3l3.5-1.9-0.2-1.1-3.3 1.7z"/>
  <path class="cls-5" d="m120 132.9v1.6l-1.6-0.1v-1.1l1.6-0.4z"/>
  <linearGradient id="SVGID_4_" x1="98.6" x2="118.2" y1="130.9" y2="130.9" gradientUnits="userSpaceOnUse">
    <stop stop-color="#A69890" offset="0"/>
    <stop stop-color="#B2A49C" offset="1"/>
  </linearGradient>
  <path class="cls-18" d="m98.6 126.8 16.5 8.9 3.1-1.3v-0.9l-15.3-8.5-1.7-0.9-2.6 1.5v1.2z"/>
  <path class="cls-4" d="m101.2 124.1 17.3 9.2-0.1 1.1-18-9.4 0.8-0.9z"/>
  <path class="cls-8" d="m90.6 106.7-16.2-8.6v-96.4l16.2 8.4v96.6z"/>
  <path class="cls-9" d="m90.6 10.1v96.6l16.2-8.7v-96.3l-16.2 8.4z"/>
  <path class="cls-10" d="m74.4 1.7 16.2 8.5 16.2-8.5-3.9-1.7h-24.5l-4 1.7z"/>
  <path class="cls-7" d="m41.9 43.1c0 9.5 4.9 16.4 15 21.4l0.2-0.6v-1.6l0.9-0.8c-5.8-2.4-13.2-8.5-13.9-13.9-1.3-9.9 11.3-21 28-23.7v-1.2c-13.4 2.2-30.2 9.6-30.2 20.4z"/>
  <linearGradient id="SVGID_5_" x1="44.7" x2="72.7" y1="37.95" y2="37.95" gradientUnits="userSpaceOnUse">
    <stop stop-color="#E5D3C3" offset="0"/>
    <stop stop-color="#D1C6BE" offset="1"/>
  </linearGradient>
  <path class="cls-20" d="m44.7 47.6c0-6.3 8.2-17.7 28-20v-4.3c-13.1 1.4-27.6 9.5-28 18.3v6z"/>
  <path class="cls-9" d="m46 46.6c3.2-6.3 10.1-13 26.7-15.7v-3.3c-10.4 1.2-26.1 7.2-27.9 18.2l0.6 3.3 0.6-2.5z"/>
  <path class="cls-7" d="m25.4 54.4v7.1c0.7 5.3 5.5 11.5 16.7 12.3l15 0.8v-5.7c-5.9-3.1-15.2-9.5-15.2-18.4v-12.4c-5 1.8-16.5 8.3-16.5 16.3z"/>
  <path class="cls-7" d="m25.8 55.9c0.5 4 1.4 7.7 1.4 7.7 0.9-5.1 9-11.8 14.9-15.2l0.3-10.3c-6 2.2-15.9 8.8-16.6 17.8z"/>
  <linearGradient id="SVGID_6_" x1="25.37" x2="49.17" y1="43.5" y2="43.5" gradientUnits="userSpaceOnUse">
    <stop stop-color="#C3BEB9" offset="0"/>
    <stop stop-color="#ADA7A0" offset="1"/>
  </linearGradient>
  <path class="cls-22" d="m25.8 59.1c-0.2-2-1.7-7.6 2.6-13.6s12.6-10.8 20.8-13.5c-2.8 2.3-5.4 5-6 6.3-4.6 1.3-16.5 7.3-17.4 16.7v4.1z"/>
  <path class="cls-8" d="m42 51.1c0.1 8.8 6.2 14.9 14.9 19v-0.7-1.8c-4.2-2-12.5-8.2-14.9-16.5z"/>
  <path class="cls-8" d="m25.4 55.6c-0.1 10.8 7.3 13.8 14 14l17.7 0.5v4.3c-13.3-0.5-19.5 0.7-25.5-2.8-6.5-3.5-6.6-9.7-6.2-16z"/>
  <path class="cls-16" d="m78.2 75.4-1.2 1.1c-6.8-1.1-15.8-4.6-19.4-6.9"/>
  <path class="cls-17" d="m44.6 51.1h1.8l0.7 1.3v13l-2.7 0.6 0.2-14.9z"/>
  <linearGradient id="SVGID_7_" x1="25.4" x2="76.8" y1="68.6" y2="68.6" gradientUnits="userSpaceOnUse">
    <stop stop-color="#FDE9D0" offset="0"/>
    <stop stop-color="#8C4822" offset=".5591"/>
    <stop stop-color="#F3C7A1" offset=".7865"/>
    <stop stop-color="#fff" offset="1"/>
  </linearGradient>
  <path d="m25.6 55.6c-0.6 11.3 6 15 15.3 15.8 6.3 0.5 17.1 0.2 19.6 0.2 4.1 1.4 10.1 3.8 15.9 5 0.2 0 0.4 0.5 0.4 0.8v6.5" fill="none" stroke="url(#SVGID_7_)" stroke-linecap="round" stroke-linejoin="round" stroke-miterlimit="10" stroke-width=".42"/>
  <path class="cls-7" d="m57.1 62.3 0.9-0.7c3.6 2 10.2 4.9 15.7 6v16.3c-5.3-1.3-11.5-3.8-15.8-6.9l-0.8-14.7z"/>
  <path class="cls-7" d="m64.6 32.9v7.5c-4.7 3-6.4 6.7-6.1 9.7 0.4 3.9 3.1 5.4 3.1 5.4l-7.9 3.1-6.1-5.1c2.6-3.1 8-7.6 14.9-9.9l2.1-3.2v-1.8l-18.5 8c2.1-5 9.4-11.5 18.5-13.7z"/>
  <path class="cls-9" d="m58 62.1v4c5 2.5 10.6 4.8 15.5 5.9l0.1-4.1c-4.1-1-11.9-3.5-15.6-5.8z"/>
  <path class="cls-7" d="m64.6 32.6v4.3c-5 1.2-11.9 5-14.1 6.2 3.4-3.2 8.4-8.5 14.1-10.5z"/>
  <path class="cls-16" d="m50.5 82.9c-2 1-3.6 2.5-2.9 5 1 3.7 14.3 11.2 43 11.2"/>
  <path class="cls-19" d="m50.6 90.5-0.1-16.1"/>
  <path class="cls-17" d="m44.2 65.9v30.7c0 2.3 1.3 4 3.3 5l34.7 19.8c4.4 2.5 11.2 3.2 17.3 1.5"/>
  <linearGradient id="SVGID_8_" x1="48.1" x2="99.4" y1="106.6" y2="106.6" gradientUnits="userSpaceOnUse">
    <stop stop-color="#EBC6A9" offset="0"/>
    <stop stop-color="#A66236" offset=".5"/>
    <stop stop-color="#C49C84" offset="1"/>
  </linearGradient>
  <path d="m98.8 119.6c-4.1 1.3-9.6 1.3-12.9-0.1-4.3-1.5-31.7-16.4-35-19-1.7-0.9-3.4-2.1-2.5-4.9l1.1-1.5 25.1-14" fill="none" stroke="url(#SVGID_8_)" stroke-linecap="round" stroke-linejoin="round" stroke-miterlimit="10" stroke-width=".3598"/>
  <path class="cls-17" d="m50.6 90.9 24-12"/>
  <path class="cls-16" d="m106.9 11.4c2.5 0.1 7 1.1 9.5 2.2 1.3 0.5 2.3 1.8 2.3 3.5v13"/>
  <path class="cls-9" d="m106.8 23.4c7.1 1.2 25.1 6.5 25.2 19.6l-0.1 8.1-3.9 2.8v-7.3c0-5.2-1.9-11.2-11.2-16.2l-0.2 1v1l-9.8-3v-6z"/>
  <linearGradient id="SVGID_9_" x1="115.6" x2="126.6" y1="38.1" y2="38.1" gradientUnits="userSpaceOnUse">
    <stop stop-color="#E5D3C3" offset="0"/>
    <stop stop-color="#D1B8A3" offset="1"/>
  </linearGradient>
  <path d="m116.6 30.5v9.1c3.8 1.4 8.3 4 9.3 5l0.7 1.1-0.6-5.8-2.9-5.5-6.5-3.9z" fill="url(#SVGID_9_)"/>
  <path class="cls-7" d="m117.4 30.6v9.3c2.7 1 7.1 3.2 8.7 5.1l-0.7-7-4.5-5.5-3.5-1.9z"/>
  <linearGradient id="SVGID_10_" x1="131.9" x2="151.5" y1="52.4" y2="52.4" gradientUnits="userSpaceOnUse">
    <stop stop-color="#C49C84" offset="0"/>
    <stop stop-color="#BA9377" offset="1"/>
  </linearGradient>
  <path d="m132 44.6 19.5 11.5v4.3l-19.5-10.4-0.1-5.4" fill="url(#SVGID_10_)"/>
  <path class="cls-9" d="m151.2 48v6.4c3.5 3.1 9.4 8.7 10 17l0.2-4.8c-0.3-6.7-3.7-13-10.2-18.6z"/>
  <linearGradient id="SVGID_11_" x1="151.2" x2="160.6" y1="62" y2="62" gradientUnits="userSpaceOnUse">
    <stop stop-color="#C3B3AA" offset="0"/>
    <stop stop-color="#CCBCB3" offset="1"/>
  </linearGradient>
  <path d="m151.2 51.1v2.9c3 2.6 8.7 8.6 9.4 18.9l0.8-4.8c-0.2-7-4.5-13.2-10.2-17z" fill="url(#SVGID_11_)"/>
  <path class="cls-16" d="m150.2 57.6c2.4 1 4.4 3.4 4.4 6.9v17"/>
  <path class="cls-13" d="m100.7 49.6 6.3 3.8"/>
  <path class="cls-16" d="m91.4 64.4c-13.4 0.2-31-3.5-31-14.8 0-5.2 7-10 14.1-12"/>
  <path class="cls-16" d="m106.9 45.5c4.6 0.6 11 3 14.6 6.1"/>
  <linearGradient id="SVGID_12_" x1="49.2" x2="72.2" y1="50.6" y2="50.6" gradientUnits="userSpaceOnUse">
    <stop stop-color="#AC8F7B" offset="0"/>
    <stop stop-color="#D8BAA4" offset="1"/>
  </linearGradient>
  <path d="m49.2 54.9 2 1.7c2.9-2.6 10.2-5.2 20.9-8.5v-3.5c-7.7 1-18.7 5-22.9 10.3z" fill="url(#SVGID_12_)"/>
  <linearGradient id="SVGID_13_" x1="47.3" x2="60.5" y1="48.4" y2="48.4" gradientUnits="userSpaceOnUse">
    <stop stop-color="#C2B1A7" offset="0"/>
    <stop stop-color="#D1C9C4" offset="1"/>
  </linearGradient>
  <path d="m47.5 52.6c2.2-2.7 8.7-7.2 12.6-8" fill="none" stroke="url(#SVGID_13_)" stroke-linecap="round" stroke-linejoin="round" stroke-miterlimit="10" stroke-width=".3765"/>
  <linearGradient id="SVGID_14_" x1="63.4" x2="74.4" y1="46.25" y2="46.25" gradientUnits="userSpaceOnUse">
    <stop stop-color="#C4B9B3" offset="0"/>
    <stop stop-color="#D1C8C3" offset="1"/>
  </linearGradient>
  <path d="m63.6 43.6c2.3-1.2 7.1-2.2 8.4-2.5l0.1 3.5c-2.2 0.4-6.4 1.5-8.5 2.3" fill="none" stroke="url(#SVGID_14_)" stroke-linecap="round" stroke-linejoin="round" stroke-miterlimit="10" stroke-width=".3765"/>
  <path class="cls-7" d="m65.9 39.1c-1.5 0.8-4.4 3.3-5.2 5 2-0.6 9-3.1 11.3-3.1l0.1 3.6 2.3-0.2 0.1-7.5c-1.8 0.2-6 1-8.6 2.2z"/>
  <linearGradient id="SVGID_15_" x1="45.27" x2="73.7" y1="37.18" y2="37.18" gradientUnits="userSpaceOnUse">
    <stop stop-color="#F7E8DA" offset="0"/>
    <stop stop-color="#C4B9B2" offset="1"/>
  </linearGradient>
  <path d="m45.5 47.5c2-6 10.7-16 27.2-19.1l1-0.8" fill="none" stroke="url(#SVGID_15_)" stroke-linecap="round" stroke-linejoin="round" stroke-miterlimit="10" stroke-width=".42"/>
  <path class="cls-17" d="m72.6 22.7 0.3 1.2-0.1 10"/>
  <path class="cls-19" d="m157.5 77.6v-12c0-4-2.4-6.5-5.4-8.2"/>
  <path class="cls-9" d="m106.8 26.1v3.3c10.6 2 19.1 6.7 19.3 15.5v1.7c2.4-4 0.3-12.5-9.2-16.2-3.3-1.8-7.4-3.4-10.1-4.3z"/>
  <linearGradient id="SVGID_16_" x1="106.8" x2="117" y1="34.15" y2="34.15" gradientUnits="userSpaceOnUse">
    <stop stop-color="#9E6C4A" offset="0"/>
    <stop stop-color="#965B38" offset="1"/>
  </linearGradient>
  <path d="m106.8 30v3.4c2.9 0.5 7.8 2.2 9.8 3.5l0.3-3.5c-2-1-6.9-2.8-10.1-3.4z" fill="url(#SVGID_16_)"/>
  <path class="cls-17" d="m116.6 30.4 2-0.4"/>
  <path class="cls-16" d="m106.8 36.1c5.8 0.8 15.7 4.8 18.3 7.3"/>
  <path class="cls-14" d="m116.6 30.5v8.9"/>
  <linearGradient id="SVGID_17_" x1="106.8" x2="128" y1="44.6" y2="44.6" gradientUnits="userSpaceOnUse">
    <stop stop-color="#E6DBD7" offset="0"/>
    <stop stop-color="#D3C8BF" offset="1"/>
  </linearGradient>
  <path d="m106.8 38.1c5.6 0.9 16.9 5.3 20.9 9.5l0.3 3.5" fill="none" stroke="url(#SVGID_17_)" stroke-linecap="round" stroke-linejoin="round" stroke-miterlimit="10" stroke-width=".42"/>
  <linearGradient id="SVGID_18_" x1="128" x2="130.9" y1="45.55" y2="45.55" gradientUnits="userSpaceOnUse">
    <stop stop-color="#FBE8D2" offset="0"/>
    <stop stop-color="#C4B8B1" offset="1"/>
  </linearGradient>
  <path d="m128.1 42.4 2.8 2.6-0.8 3.7-1.6 0.4-0.4-6.7z" fill="url(#SVGID_18_)"/>
  <path class="cls-16" d="m128.5 44.6c1.1 0.5 1.9 1.3 2.4 1.8"/>
  <linearGradient id="SVGID_19_" x1="129.5" x2="131.9" y1="46.6" y2="46.6" gradientUnits="userSpaceOnUse">
    <stop stop-color="#fff" offset="0"/>
    <stop stop-color="#D3C7C0" offset="1"/>
  </linearGradient>
  <path d="m129.7 45.1c0.7 0.5 1.8 1.4 2 1.8" fill="none" stroke="url(#SVGID_19_)" stroke-linecap="round" stroke-linejoin="round" stroke-miterlimit="10" stroke-width=".42"/>
  <linearGradient id="SVGID_20_" x1="88.2" x2="149.2" y1="108.6" y2="108.6" gradientUnits="userSpaceOnUse">
    <stop stop-color="#C3A698" offset="0"/>
    <stop stop-color="#EDE8E2" offset="1"/>
  </linearGradient>
  <path d="m98.7 126.5 50.5-29-1.5-9.4-49.5 28.8v9.6" fill="url(#SVGID_20_)"/>
  <linearGradient id="SVGID_21_" x1="98.7" x2="147.7" y1="107.6" y2="107.6" gradientUnits="userSpaceOnUse">
    <stop stop-color="#A6785B" offset="0"/>
    <stop stop-color="#9D857D" offset="1"/>
  </linearGradient>
  <path d="m98.8 116.1v7.5l48.9-27.5v-7.5l-1.3-0.7c-3.8 2.7-12.2 8.5-24.3 12.2l-23.3 16z" fill="url(#SVGID_21_)"/>
  <linearGradient id="SVGID_22_" x1="122.2" x2="147.7" y1="98.95" y2="98.95" gradientUnits="userSpaceOnUse">
    <stop stop-color="#B3A199" offset="0"/>
    <stop stop-color="#A08F88" offset="1"/>
  </linearGradient>
  <path d="m122.2 99.9 0.2 8.5c2.1 0.5 14.2-5 16.6-6.3 2.4-1.2 8.7-5.7 8.7-5.7l-0.1-7.8-1.2-0.5c-3 2.3-11 8.3-24.2 11.8z" fill="url(#SVGID_22_)"/>
  <path class="cls-7" d="m131.9 48.9v3.2c-2.7 3.8-7.5 7.4-14.2 9.9v7.4c9.2-3 14.3-9 14.3-13.5l-0.1-7z"/>
  <path class="cls-7" d="m138.1 51.6 0.2 11.4c1.6 1.4 4.3 4.4 4.6 5.6l1.8-3.7-0.8-7.3-3.8-6h-2z"/>
  <path class="cls-7" d="m143.5 55.4 1.9-0.3c0.8 1.8 1.3 3.5 1.3 5.4l-0.1 14.1c0 8-12.4 15-24.7 19.3-10.4 3-20.5 4.5-31.3 5v-1.4-10.9c9 0.3 18.4-0.7 27.1-3.5 10-2.2 23.2-10.2 25.9-16.7l-0.1-11z"/>
  <path class="cls-9" d="m138.4 55.9v0.6c2.2 1.6 5.2 5.9 5.5 9.5l0.7-1.6-0.4-4.8-3.8-5.6-2-0.6v2.5z"/>
  <linearGradient id="SVGID_23_" x1="146.9" x2="161.4" y1="80.55" y2="80.55" gradientUnits="userSpaceOnUse">
    <stop stop-color="#D6CDC6" offset="0"/>
    <stop stop-color="#E6E1DC" offset="1"/>
  </linearGradient>
  <path d="m146.9 87.4 0.8 1.2v7.4c5.2-3.6 13.4-9.6 13.7-18.9v-6.2c-0.5 4.5-4.7 11.2-14.5 16.5z" fill="url(#SVGID_23_)"/>
  <path class="cls-7" d="m147.2 87.6 0.5 1c2.4-1.5 9-7 11.3-11l1.4-6.2-2.7 5.1-4.7 6.1-5.8 5z"/>
  <linearGradient id="SVGID_24_" x1="122.2" x2="159.9" y1="98" y2="98" gradientUnits="userSpaceOnUse">
    <stop stop-color="#B7A59D" offset="0"/>
    <stop stop-color="#E6E1DC" offset="1"/>
  </linearGradient>
  <path d="m147.7 91.9c3.9-2.5 10.4-8.3 12.2-13.8" fill="none" stroke="url(#SVGID_24_)" stroke-linecap="round" stroke-linejoin="round" stroke-miterlimit="10" stroke-width=".42"/>
  <path class="cls-7" d="m106.8 39.9c3.6 0.7 13.8 3.5 17.3 8.7l-0.7 1.8c-2-2-8.5-5.8-16.6-7.5v-3z"/>
  <path class="cls-7" d="m106.8 51.6v2.8c2.4 0.2 8.8 1.7 10.1 2.5l3-1.5-3-1-10.1-2.8z"/>
  <linearGradient id="SVGID_25_" x1="76.2" x2="117.7" y1="60.1" y2="60.1" gradientUnits="userSpaceOnUse">
    <stop stop-color="#D3CAC4" offset="0"/>
    <stop stop-color="#E6E1DC" offset="1"/>
  </linearGradient>
  <path d="m76.2 60.1v5.3c7.2 1.7 22 3.2 41.5-2.5v-4.3l-1.6-0.9c-4 1.7-12.9 3.9-24.7 3.9l-15.2-1.5z" fill="url(#SVGID_25_)"/>
  <linearGradient id="SVGID_26_" x1="76.1" x2="91.2" y1="69.15" y2="69.15" gradientUnits="userSpaceOnUse">
    <stop stop-color="#CDC5C0" offset="0"/>
    <stop stop-color="#D1CAC5" offset="1"/>
  </linearGradient>
  <path d="m76.2 65.6v7c4.3 0.8 9.4 1.5 15 1.5v-6.5c-2.8 0-11-0.7-15-2z" fill="url(#SVGID_26_)"/>
  <linearGradient id="SVGID_27_" x1="91.4" x2="117.9" y1="66.4" y2="66.4" gradientUnits="userSpaceOnUse">
    <stop stop-color="#B6A299" offset="0"/>
    <stop stop-color="#D6CDC6" offset="1"/>
  </linearGradient>
  <path d="m91.5 67.1v4c10.9-0.5 17.6-1.6 26.4-5v-4c-5 2-15.4 4.9-26.4 5z" fill="url(#SVGID_27_)"/>
  <linearGradient id="SVGID_28_" x1="104.7" x2="128.7" y1="75.6" y2="75.6" gradientUnits="userSpaceOnUse">
    <stop stop-color="#D6C9C1" offset="0"/>
    <stop stop-color="#E6DED9" offset="1"/>
  </linearGradient>
  <path d="m104.7 75.9v6.5c8.9-1 24.2-5.9 24-15.5l-0.2-5c-2.3 6-9.5 11.7-23.8 14z" fill="url(#SVGID_28_)"/>
  <linearGradient id="SVGID_29_" x1="90.4" x2="119.2" y1="88.6" y2="88.6" gradientUnits="userSpaceOnUse">
    <stop stop-color="#D6CDC6" offset="0"/>
    <stop stop-color="#DED8D3" offset="1"/>
  </linearGradient>
  <path d="m90.5 86.9v4c13.4 0.1 23.7-1.8 28.7-3.5v-4.3c-3.3 0.8-11.8 3.8-28.7 3.8z" fill="url(#SVGID_29_)"/>
  <linearGradient id="SVGID_30_" x1="90.4" x2="146.7" y1="92" y2="92" gradientUnits="userSpaceOnUse">
    <stop stop-color="#B7A194" offset="0"/>
    <stop stop-color="#E6E1DC" offset="1"/>
  </linearGradient>
  <path d="m90.6 97.6c14.3 0 21.6-0.5 33.3-3.2 9-2.8 22.8-9.3 22.8-17v2.6" fill="none" stroke="url(#SVGID_30_)" stroke-linecap="round" stroke-linejoin="round" stroke-miterlimit="10" stroke-width=".42"/>
  <path class="cls-7" d="m74.4 58.4c2 0.5 9.8 2.7 17 2.7v3c-4.8 0-12.5-0.6-17-1.7v-4z"/>
  <linearGradient id="SVGID_31_" x1="91.4" x2="117.9" y1="59.55" y2="59.55" gradientUnits="userSpaceOnUse">
    <stop stop-color="#DED9D4" offset="0"/>
    <stop stop-color="#E6E1DC" offset="1"/>
  </linearGradient>
  <path d="m91.6 63.6c6.6 0 15-0.7 26.1-4.1" fill="none" stroke="url(#SVGID_31_)" stroke-linecap="round" stroke-linejoin="round" stroke-miterlimit="10" stroke-width=".42"/>
  <linearGradient id="SVGID_32_" x1="117.4" x2="132.1" y1="48.6" y2="48.6" gradientUnits="userSpaceOnUse">
    <stop stop-color="#D6CCC3" offset="0"/>
    <stop stop-color="#D6CDC6" offset="1"/>
  </linearGradient>
  <path d="m117.4 58.6v3.3c6.3-2.5 14.6-7.3 14.7-12.3l-0.1-4.2c-0.9 4-4.8 9-14.6 13.2z" fill="url(#SVGID_32_)"/>
  <linearGradient id="SVGID_33_" x1="115.9" x2="132.1" y1="48.4" y2="48.4" gradientUnits="userSpaceOnUse">
    <stop stop-color="#F7EEE9" offset="0"/>
    <stop stop-color="#D6CDC6" offset="1"/>
  </linearGradient>
  <path d="m116.3 58.1c3.7-1.5 15.7-5.5 15.8-14.7" fill="none" stroke="url(#SVGID_33_)" stroke-linecap="round" stroke-linejoin="round" stroke-miterlimit="10" stroke-width=".42"/>
  <path class="cls-17" d="m100.6 49.9 16.8 9v24"/>
  <linearGradient id="SVGID_34_" x1="118.4" x2="146.7" y1="72.5" y2="72.5" gradientUnits="userSpaceOnUse">
    <stop stop-color="#DED9D4" offset="0"/>
    <stop stop-color="#C4B9B2" offset="1"/>
  </linearGradient>
  <path d="m118.6 83.1c14.4-3.5 27.8-12 28-20.7" fill="none" stroke="url(#SVGID_34_)" stroke-linecap="round" stroke-linejoin="round" stroke-miterlimit="10" stroke-width=".42"/>
  <linearGradient id="SVGID_35_" x1="118.9" x2="146.7" y1="78.4" y2="78.4" gradientUnits="userSpaceOnUse">
    <stop stop-color="#E6E1DC" offset="0"/>
    <stop stop-color="#A69890" offset="1"/>
  </linearGradient>
  <path d="m118.9 83.6 0.1 3.9c9.9-2.4 27.2-9.9 27.7-22.1v-0.9c-1 7.4-12.1 15.9-27.8 19.1z" fill="url(#SVGID_35_)"/>
  <linearGradient id="SVGID_36_" x1="90.4" x2="146.7" y1="85.1" y2="85.1" gradientUnits="userSpaceOnUse">
    <stop stop-color="#B7A194" offset="0"/>
    <stop stop-color="#9E8476" offset="1"/>
  </linearGradient>
  <path d="m90.5 90.9v3.2c17.1 0.3 55.9-3.7 56.2-26.2v-2.3c-0.8 10-15.5 20.9-56.2 25.3z" fill="url(#SVGID_36_)"/>
  <linearGradient id="SVGID_37_" x1="122.2" x2="147.7" y1="97.5" y2="97.5" gradientUnits="userSpaceOnUse">
    <stop stop-color="#C7B5AE" offset="0"/>
    <stop stop-color="#776861" offset="1"/>
  </linearGradient>
  <path d="m122.4 104.4-18 11.1c-1.2 0.9-2 1.5-2 3.4v5.5l16.5 9.1" fill="none" stroke="url(#SVGID_37_)" stroke-linecap="round" stroke-linejoin="round" stroke-miterlimit="10" stroke-width=".3598"/>
  <path class="cls-17" d="m102.4 124.4c-0.2 0.7 0.6 2 0.6 2"/>
  <path class="cls-14" d="m118.9 83.5v22.5"/>
  <path class="cls-17" d="m138.4 51.9 1.2-0.3c2.4 1.8 4.6 5.8 4.6 8.5l-0.1 4.3"/>
  <path class="cls-16" d="m122.4 100.1c4.2-1.2 14.5-4.5 24-12"/>
  <path class="cls-17" d="m76.4 60.9c12 2.7 26.1 2.6 40.2-1.8"/>
  <linearGradient id="SVGID_38_" x1="57.6" x2="76.8" y1="75.6" y2="75.6" gradientUnits="userSpaceOnUse">
    <stop stop-color="#BAA295" offset="0"/>
    <stop stop-color="#9E7252" offset=".3371"/>
    <stop stop-color="#F3C7A1" offset=".6685"/>
    <stop stop-color="#936E56" offset="1"/>
  </linearGradient>
  <path d="m57.6 69.6v4.3c3.8 1.7 12.1 4.7 16 5.5l3.2-2-0.7-1.3c-4.4-0.5-14.5-4-18.5-6.5z" fill="url(#SVGID_38_)"/>
  <path class="cls-17" d="m73.6 75.9 3 0.7s0.3 0.3 0.2 0.5"/>
  <path class="cls-17" d="m57.6 69.9 0.3 7"/>
</svg>