<svg xmlns="http://www.w3.org/2000/svg" viewBox="0 0 164 199">
<!-- SVG created with Arrow, by QuiverAI (https://quiver.ai) -->
  <style type="text/css">.cls-0 {fill:#EDEDED;}
.cls-1 {fill:url(#SVGID_1_);}
.cls-2 {fill:#F3EEEA;}
.cls-3 {fill:#ECE7E2;}
.cls-4 {fill:url(#SVGID_2_);}
.cls-5 {fill:#B58C78;}
.cls-6 {fill:#B8B6B3;}
.cls-7 {fill:#D2CDC8;}
.cls-8 {fill:url(#SVGID_3_);}
.cls-9 {fill:#A98069;}
.cls-10 {fill:#ECEBEA;}
.cls-11 {fill:#CCB7AA;}
.cls-12 {fill:#FFFFFF;}
.cls-13 {fill:none;stroke:#8A5A44;stroke-width:0.15;stroke-miterlimit:10;}
.cls-14 {fill:#A08070;}
.cls-15 {fill:#8A5A44;}
.cls-16 {fill:#F4F3F4;}
.cls-17 {fill:url(#SVGID_4_);}
.cls-18 {fill:#D4C4BC;}
.cls-19 {fill:#E3DBD6;}
.cls-20 {fill:none;stroke:#FFFFFF;stroke-width:0.25;stroke-miterlimit:10;}
.cls-21 {fill:none;stroke:#FFFFFF;stroke-width:0.15;stroke-miterlimit:10;}
.cls-22 {fill:#C1A89C;}
.cls-23 {fill:#A47862;}
.cls-24 {fill:#875E4A;}
.cls-25 {fill:#BDA091;}
.cls-26 {opacity:0.3;fill:#C09E8D;enable-background:new    ;}
.cls-27 {fill:#A88575;}
.cls-28 {fill:#D7C8C1;}
.cls-29 {fill:#977362;}
.cls-30 {fill:#E3DDD9;}
.cls-31 {fill:#F5F3F3;}
.cls-32 {fill:none;stroke:#CECECE;stroke-width:0.11;stroke-miterlimit:10;}
.cls-33 {fill:#E1D7D2;}
.cls-34 {fill:#8E7061;}</style>
  <rect class="cls-0" width="164" height="199"/>
  <linearGradient id="SVGID_1_" x1="81.95" x2="81.95" y1="199" y2="-9.095e-13" gradientUnits="userSpaceOnUse">
    <stop stop-color="#E3DFDA" stop-opacity=".5" offset="0"/>
    <stop stop-color="#fff" stop-opacity="0" offset="1"/>
  </linearGradient>
  <rect class="cls-1" width="164" height="199"/>
  <ellipse class="cls-2" cx="77.5" cy="52" rx="78" ry="36"/>
  <path class="cls-3" d="m151.4 45.7c-6.5-10.2-28.2-25.7-72.9-26.1-39.5-0.4-58.3 8.3-65.6 13.4-5.5 3.8-11.1 8.3-12.9 15.2v31.4c5.6 8.2 19.6 14.3 23.9 16.9 7.8 4.9 23.7 13.9 51.6 13.5s59.8-4.2 74.2-15.7c5.1-3.8 11.8-9.1 14.3-14.4v-32.1c-2.8-1.8-9.7 1.8-12.6-2.1z"/>
  <linearGradient id="SVGID_2_" x1="5.1" x2="157.9" y1="62.3" y2="62.3" gradientUnits="userSpaceOnUse">
    <stop stop-color="#F2EEEC" offset="0"/>
    <stop stop-color="#F7F0EA" offset=".5419"/>
    <stop stop-color="#E8DCD3" offset="1"/>
  </linearGradient>
  <path class="cls-4" d="m77.6 25.1c-35.5 0.3-49.4 6.5-57.3 12.9-5.5 4.3-14.7 12.8-15.2 24.9-0.6 13.9 10.9 21.2 19.4 26.2 8.6 5 22.9 10.8 49.9 11.4 27.1 0.6 52.5-5.3 64.7-14.6 6-4.2 9.9-12.5 9.2-25-0.7-12.7-13.2-18.6-21.9-23.3-9.2-5-23.4-12.7-48.8-12.5z"/>
  <ellipse class="cls-2" cx="76.6" cy="61.8" rx="67.7" ry="34.9"/>
  <ellipse class="cls-3" cx="76.1" cy="61.9" rx="56.2" ry="31.8"/>
  <ellipse class="cls-2" cx="76.6" cy="62.1" rx="49.3" ry="28.3"/>
  <linearGradient id="SVGID_3_" x1="76.4" x2="76.4" y1="89.9" y2="34.5" gradientUnits="userSpaceOnUse">
    <stop stop-color="#F6EAE4" offset="0"/>
    <stop stop-color="#FFF9F3" offset=".5091"/>
    <stop stop-color="#F1ECE9" offset="1"/>
  </linearGradient>
  <ellipse class="cls-8" cx="76.4" cy="62.2" rx="50.9" ry="27.7"/>
  <ellipse class="cls-10" cx="76.4" cy="61.7" rx="50.4" ry="26.5"/>
  <radialGradient id="SVGID_4_" cx="76.5" cy="132.9" r="31.2" gradientTransform="matrix(1 0 0 -1 0 199)" gradientUnits="userSpaceOnUse">
    <stop stop-color="#F2F1F3" offset=".4769"/>
    <stop stop-color="#EDECEF" offset="1"/>
  </radialGradient>
  <path class="cls-17" d="m93.1 43.9c-12.2-3.2-28-2.8-37.9 1.5s-15.2 9.4-15.4 15.5c-0.3 6 5.3 15.3 19.6 18.5s26.9 2.4 37-0.6c9.2-2.7 15.8-8.7 16.3-16.9 0.4-8.2-9.2-15.3-19.6-18z"/>
  <path class="cls-5" d="m38.7 59.4c-1.1 10.8 10.3 21.6 31.4 23.4s43.7-5.2 44.1-22.5c-0.8-11.8-17.1-19.9-37.1-19.9s-37 6.3-38.4 19z"/>
  <path class="cls-11" d="m40.5 59.1c-1.1 10.2 10.1 20.5 30.6 22.2s41.4-4.4 41.2-21.4c-0.8-11.2-16.9-18.4-35.2-18.4s-35.3 5.6-36.6 17.6z"/>
  <path class="cls-16" d="m40.7 59.8c-1 9.3 9.8 19 29.7 21.2 20.9 1.4 42-4.7 41.9-20.5-0.8-10.3-16.9-18.6-35.2-18.6s-35.2 6.7-36.4 17.9z"/>
  <radialGradient id="SVGID_5_" cx="77.1" cy="122.9" r="26.96" gradientTransform="matrix(1 0 0 -1 0 199)" gradientUnits="userSpaceOnUse">
    <stop stop-color="#FEF7F0" offset=".618"/>
    <stop stop-color="#F6F3F4" offset="1"/>
  </radialGradient>
  <path d="m93.7 72.7-28.1 15.1c18.5 1.8 39.7-1 47-9.4l-11.6-6.1c-2.2-0.9-4.8-0.9-7.3 0.4z" fill="url(#SVGID_5_)"/>
  <linearGradient id="SVGID_6_" x1="14.1" x2="141.2" y1="130" y2="130" gradientUnits="userSpaceOnUse">
    <stop stop-color="#E0DFDA" offset="0"/>
    <stop stop-color="#F4F3F3" offset="1"/>
  </linearGradient>
  <path d="m138.7 93.7-34.2-18.1c-6.3 3.3-14.8 6.8-28.1 6.8-9.4 0-17.7-1.2-24-4.1l-37.2 36.8c-1.3 0.6-1.2 3.5-0.9 4.5l40.4 23.5c2.1 1.2 5.5 1.2 7.7 0.2l76.2-39c1.5-0.8 1.9-1.7 2-3.1l-0.4-5.2c0.1-1-0.4-1.8-1.5-2.3z" fill="url(#SVGID_6_)"/>
  <path class="cls-6" d="m14.1 117.2-0.1 34.7 40.9 24.6c2 1.3 5.2 1.1 5.2 0.5l0.1-34.2-5.1-0.9-39.4-22.6-1.6-2.1z"/>
  <path class="cls-7" d="m56.9 176.4 0.2-32.3-2-0.3-40.2-23.9c-1.2-0.8-0.8-3.3-0.8-3.3l39.3 24.3 4.2 1.2 2.6 0.7-0.2 33.8-3.1-0.2z"/>
  <linearGradient id="SVGID_7_" x1="58.1" x2="141.5" y1="138" y2="138" gradientUnits="userSpaceOnUse">
    <stop stop-color="#D9D3CE" offset="0"/>
    <stop stop-color="#9F978D" offset="1"/>
  </linearGradient>
  <path d="m61.2 141.7 77.2-40.2 3.1-2.9-0.1 29c0 1.9-1.1 4.1-2.8 5l-77.8 44.7-2.7-0.8 0.1-31.2c-0.1-1.4 1.2-2.7 3-3.6z" fill="url(#SVGID_7_)"/>
  <linearGradient id="SVGID_8_" x1="110.3" x2="140.2" y1="117.4" y2="117.4" gradientUnits="userSpaceOnUse">
    <stop stop-color="#BBB1A7" offset="0"/>
    <stop stop-color="#9D978E" offset="1"/>
  </linearGradient>
  <path d="m110.3 113.3 29.9-14.6 0.1 30.4-30-15.8z" fill="url(#SVGID_8_)"/>
  <linearGradient id="SVGID_9_" x1="58.55" x2="55.15" y1="138" y2="141.3" gradientUnits="userSpaceOnUse">
    <stop stop-color="#E2DFDA" offset="0"/>
    <stop stop-color="#B3AAA3" offset="1"/>
  </linearGradient>
  <path d="m54.2 141.7 2.7 0.9 0.1 1.6-1.9-0.4z" fill="url(#SVGID_9_)"/>
  <linearGradient id="SVGID_10_" x1="65.48" x2="44.08" y1="174.6" y2="164.2" gradientUnits="userSpaceOnUse">
    <stop stop-color="#B4AFAA" offset="0"/>
    <stop stop-color="#865C4A" offset="1"/>
  </linearGradient>
  <path d="m14.1 152c-0.1 1.2 1.1 2.8 2.3 3.2l37 21.3c1.2 1 1.9 0 0-1.2l-37.3-21.2c-1-0.4-2-1.3-2-2.1z" fill="url(#SVGID_10_)"/>
  <linearGradient id="SVGID_11_" x1="13.9" x2="121.4" y1="172.4" y2="172.4" gradientUnits="userSpaceOnUse">
    <stop stop-color="#B5AAA1" stop-opacity="0" offset="0"/>
    <stop stop-color="#B5AAA1" stop-opacity=".5" offset="1"/>
  </linearGradient>
  <path d="m15.8 171.4c-5.5 2.4-4.4 5.5 1.6 8.7l17.7 9.2c4.4 2.3 11.1 4.8 16.7 2.7l67.7-26.1c3.9-1.5 3.6-7.1-2.1-10.1l-11.2-5.9-90.4 21.5z" fill="url(#SVGID_11_)"/>
  <path class="cls-9" d="m60.4 141.9 77.7-38.8v-3.5l-77.4 40.9c-2 1-3.6 3.6-3.6 5.6l-0.1 29.2c0.2 1.6 1.6 2.6 3.8 1.8l57.2-31.2 0.1-1.8-57.2 31.7c-1.3 0.7-2.4 0.1-2.4-0.9l0.1-28.4c0-2 0.5-3.6 1.8-4.6z"/>
  <path class="cls-5" d="m138.1 98.7 0.5 2.5 1.7-1 1.1 0.5c0.2-3.6-1.8-3.2-3.3-2z"/>
  <path class="cls-9" d="m138.6 98.3v2.2l1.1-1c0.9-0.2 0.7 1 0.7 1l1.1-0.5c0-2.4-1.6-2.5-2.9-1.7z"/>
  <path class="cls-5" d="m140.4 99.8s0.1 27.7 0 29c-0.2 1.2-1 2.3-2.8 3.3l-11.6 7 0.1 1.5 12.4-6.9c1.9-1.1 3-3.2 3-5.8l0.1-28.4-1.2 0.3z"/>
  <linearGradient id="SVGID_12_" x1="14.1" x2="139.9" y1="110.8" y2="110.8" gradientUnits="userSpaceOnUse">
    <stop stop-color="#E8E7E4" offset="0"/>
    <stop stop-color="#F7F6F5" offset="1"/>
  </linearGradient>
  <path d="m15.2 115.1c-1.1 0.6-1.5 2.5 0.5 3.7l37.7 21.8c2 1.3 4.7 1.8 7.2 0.5l78-42.8c1.8-0.7 1.5-4-0.1-4 0.1 0-18.8 11.2-60.6 11.2-35 0-62.7 9.6-62.7 9.6z" fill="url(#SVGID_12_)"/>
  <path class="cls-26" d="m19 87.6c-1.4-0.7-2.4-0.5-2.4 0.9v20.1c0 1 0.9 1.3 1.6 1l27.8-15.5c0.7-0.4 1.1-1 1.1-1.9l-0.1-14.9c0.1-0.8-0.6-1.2-1.1-0.7l-26.9 11z"/>
  <path class="cls-27" d="m23.9 31c-0.5 0.4-0.8 1-0.8 1.6l0.1 21c0 1 0.4 1 1.3 0.8l30.1-15.3c0.8-0.4 1.3-1 1.3-1.9v-21.5c0-0.7-0.4-1.1-0.9-0.8l-31.1 16.1z"/>
  <path class="cls-28" d="m24.4 31.2c-0.5 0.4-1 1.2-1 1.8v20.9c0 0.7 0.5 0.7 1.1 0.3l30-15.1c0.7-0.4 1.4-1 1.4-2v-21.5c0-0.6-0.3-1-0.9-0.6l-30.6 16.2z"/>
  <path class="cls-29" d="m99.7 29.2v13.7l0.5 0.6 0.3-15.5-0.8 1.2z"/>
  <path class="cls-30" d="m100.7 27.6c-0.6 0.3-0.8 0.9-0.8 1.8v13.7l0.5 0.5 19.6-10c0.9-0.5 1.5-1 1.5-2v-14.4l-9.1 4.2-11.7 6.2z"/>
  <path class="cls-28" d="m112.1 21.4 30.6 16 0.7-0.3v-18.2c0-0.5-0.3-1-0.8-1.3l-29.7-15.7-0.9 0.1 0.1 19.4z"/>
  <path class="cls-31" d="m112.1 21.4 18.4 9.6 12.1 6.4v-18.5c0-0.5-0.2-0.9-0.6-1.2l-29.9-15.7v19.4z"/>
  <path class="cls-22" d="m130.6 16.6 9 4.6 0.1 11.4s-4.7-3.7-5-6.2c-0.2-2.5 0-7.7 0-7.7l-4.1-2.1z"/>
  <path class="cls-32" d="m130.5 16.5 12.1 1.1c0.5 0.3 0.8 0.8 0.8 1.3v18.1l-0.7 0.4"/>
  <path class="cls-13" d="m112.1 2.1 0.8-0.2 29.7 15.7c0.5 0.3 0.8 0.8 0.8 1.3v18.1l-0.7 0.4"/>
  <path class="cls-21" d="m130.6 16.5v10.1l-13-6.2"/>
  <path class="cls-12" d="m122.9 18.1 3 1.9"/>
  <path class="cls-12" d="m122.4 21.9 3.7 1.8"/>
  <path class="cls-12" d="m123 17.6 2.9 1.9"/>
  <path class="cls-12" d="m122.1 23.6 5.5 2.5"/>
  <path class="cls-27" d="m139.7 21.2v11.4l-0.3-0.2 0.1-10.9 0.2-0.3z"/>
  <path class="cls-33" d="m112.1 21.4 8.3-4c1-0.7 1.2-0.4 1.2 1.2l-0.2 14-1.3 0.8-8-4.2v-7.8z"/>
  <path class="cls-30" d="m100.7 27.6c-0.5 0.3-0.8 0.9-0.8 1.8v13.7l0.5 0.5 20-10.7c0.7-0.3 1-1 1-1.8v-13.1c0-0.6-0.4-0.9-1-0.6l-19.7 10.2z"/>
  <path class="cls-12" d="m102.5 34.9 2.6-1.7-0.5 0.7-2 1.3-0.1-0.3z"/>
  <path class="cls-12" d="m102.6 36.1 2.9-1.5-0.3 0.6-2.6 1.4v-0.5z"/>
  <path class="cls-12" d="m102.6 38.2 2.9-1.3-0.5 0.6-2.1 1-0.3-0.3z"/>
  <path class="cls-12" d="m107.4 31.9 3-1.4-0.7 0.7-2.2 1.2-0.1-0.5z"/>
  <path class="cls-12" d="m112.1 29.5 1.4-0.9-0.3 0.6-1.1 0.7v-0.4z"/>
  <path class="cls-12" d="m116.1 27.5 1.8-1.1-0.3 0.5-1.4 1-0.1-0.4z"/>
  <path class="cls-12" d="m107.4 34.5 1.6-0.9-0.4 0.4-1.1 0.9-0.1-0.4z"/>
  <path class="cls-12" d="m112.1 31.2 0.9-0.6-0.1 0.5-0.8 0.5v-0.4z"/>
  <path class="cls-12" d="m115.6 29.6 1-0.6-0.2 0.4-0.7 0.5-0.1-0.3z"/>
  <path class="cls-12" d="m115.7 29.9"/>
  <path class="cls-12" d="m115.7 29.6"/>
  <path class="cls-12" d="m115.6 30"/>
  <path class="cls-12" d="m115.7 29.6"/>
  <path class="cls-12" d="m115.6 30.1"/>
  <path class="cls-12" d="m115.7 29.7"/>
  <path class="cls-12" d="m115.6 30.1"/>
  <path class="cls-12" d="m115.7 29.7"/>
  <path class="cls-12" d="m115.6 30.2 1.9-1.1-0.4 0.5-1.4 0.8-0.1-0.2z"/>
  <path class="cls-26" d="m18.6 92.6-2 0.5v15.8l0.8 0.8 16.5-8.5 9.5 9 0.2 7.9 0.4-0.2v-16l-0.9-1.2-24.5-8.1z"/>
  <path class="cls-27" d="m16.6 87.6 0.4-0.4 0.1 22.4-0.5-0.5v-21.5z"/>
  <path class="cls-28" d="m18 87.2c-0.6-0.3-0.9 0.2-0.9 0.8v21c0 0.7 0.5 0.9 1 0.6l15.8-8.4 9.6 6.9 0.1 10h0.3l-0.3-16.2-25.6-14.7z"/>
  <path class="cls-26" d="m19.6 95-0.5 1 14.9 7.9v4.7l7.4-3.9 0.1-1-16.4-11.1-5.5 2.4z"/>
  <path class="cls-12" d="m19.1 94.9c0-0.5 0.3-0.7 0.8-0.9l4.7-1.9-2.2 1.9-3.3 1.9v-1z"/>
  <path class="cls-12" d="m19.1 97.5 5.5-2.9-0.5 0.6-5 2.8v-0.5z"/>
  <path class="cls-12" d="m19 100 2.5-1.1-0.4 0.5-2.1 1.1v-0.5z"/>
  <path class="cls-12" d="m19 102.2 1.4-0.6-0.3 0.5-1.1 0.5v-0.4z"/>
  <path class="cls-34" d="m43.6 101.9h0.4v15.7l-0.4 0.3v-16z"/>
  <path class="cls-21" d="m39.1 102.4 2.3 1.2c0.6 0.5 0.3 1.3-0.3 1.4l-7 3.6-0.1-3.5 5.1-2.7z"/>
  <path class="cls-23" d="m39.6 102.4 1.8 1.2c0.6 0.5 0.3 1.3-0.3 1.4l-4.2 2.1-2.9-2 5.6-2.7z"/>
  <path class="cls-18" d="m36.6 107.1 6.3 2.8-6.2 2.5-0.1-5.3z"/>
  <path class="cls-2" d="m35.7 106.2 2.7 1.9-1.8-0.2-0.9-1.7z"/>
  <path class="cls-21" d="m26.4 35.5 6.7-3.6 0.1 13.6-6.8 3.5v-13.5z"/>
  <path class="cls-12" d="m27.5 39 3.5-1.9-0.4 0.5-3.1 1.8v-0.4z"/>
  <path class="cls-12" d="m27 42.9 5.5-2.9-0.5 0.5-5 2.9v-0.5z"/>
  <path class="cls-12" d="m27.6 45.1 4.8-2.7-0.4 0.6-4.4 2.5v-0.4z"/>
  <path class="cls-12" d="m27.6 46.1 4.4-2.2-0.4 0.5-4 2.2v-0.5z"/>
  <path class="cls-26" d="m31.4 32.6 18.6-6.2v8.6l-16.8 10.5-0.1-5.9 4.8-3 2.1-0.2 4-2.3 3.6-1.1 1.8 0.1 0.1-6.2-6.5 5.1-4.5 2.4-1.4 1.6-5.6 2.2-0.1-5.6z"/>
  <linearGradient id="SVGID_13_" x1="37.37" x2="49.5" y1="31.95" y2="31.95" gradientUnits="userSpaceOnUse">
    <stop stop-color="#C8A795" offset="0"/>
    <stop stop-color="#E3D6CE" offset="1"/>
  </linearGradient>
  <path d="m38 34.6c2.7-1.4 6.5-2.2 11.5-7.7v6.1c-5-1.1-7.9 4.5-11 3.6-2.3-0.4-1.1-1.6-0.5-2z" fill="url(#SVGID_13_)"/>
  <path class="cls-21" d="m37.1 85 5.3-2.8v10.7l-5.2 3.1-0.1-11z"/>
  <path class="cls-12" d="m27.4 90.4 0.6-0.5-0.4 1-0.2-0.5z"/>
  <path class="cls-12" d="m35.6 91.4 0.3-0.2v0.4l-0.3-0.2z"/>
  <path class="cls-12" d="m43.5 92.5 0.2-0.3-0.1 0.8-0.1-0.5z"/>
  <path class="cls-12" d="m20.6 92.1 0.5-0.1-0.1 0.5-0.4-0.4z"/>
  <path class="cls-12" d="m26.4 93 0.6-0.1-0.5 0.7-0.1-0.6z"/>
  <path class="cls-12" d="m30.4 89 3.7-2.1-0.2 0.5-3.9 2.2 0.4-0.6z"/>
  <path class="cls-12" d="m30.1 91.2 3.3-1.3-0.3 0.5-3 1.5v-0.7z"/>
  <path class="cls-12" d="m31.1 93.5 2.3-1-0.3 0.5-2 1v-0.5z"/>
  <path class="cls-12" d="m35.1 86.4 1.3-0.5-0.5 0.5-0.8 0.5v-0.5z"/>
  <path class="cls-21" d="m37.2 89.6 5.2-2.4"/>
  <path class="cls-20" d="m49.7 24.5 0.2 10.4-16.7 10.2"/>
  <path class="cls-13" d="m112 21.4 7.9-4c1.7-0.9 1.7-0.5 1.6 1.8"/>
  <path class="cls-13" d="m130.1 16.6 9.5 4.6 0.1 11.4"/>
  <path class="cls-13" d="m130.2 16.5 0.4 7.4"/>
  <path class="cls-13" d="m130.1 16.6 0.5-0.4 9 5"/>
  <path class="cls-14" d="m56.6 110.5 0.3-0.4 20.5 11.3 30.7-16 0.1 0.5-30.6 16.5-21-11.9z"/>
  <path class="cls-15" d="m56.6 110.5 20.8 11.9 0.1-1-20.3-12.3-0.6 1.4z"/>
  <path class="cls-25" d="m78.1 121.4 30-16 0.1 0.5-30.7 16 0.6-0.5z"/>
  <path class="cls-28" d="m73.1 101.1 3.1-4.6 10.7-3.3 21.2 11.9c-7.5 2.8-13.1 4.4-14.7 7.9l-20.3-11.9z"/>
  <linearGradient id="SVGID_14_" x1="57.5" x2="93.4" y1="112.5" y2="112.5" gradientUnits="userSpaceOnUse">
    <stop stop-color="#E7E6E3" offset="0"/>
    <stop stop-color="#FBFAFA" offset="1"/>
  </linearGradient>
  <path d="m57.5 108.9 20.5 11.7 8.5-5.2c1.9-1.3 5.1-2.5 6.9-2.4l-21-11.6-3.8 0.2-11.1 7.3z" fill="url(#SVGID_14_)"/>
  <path class="cls-25" d="m78 121.4c5.4-2.3 11-6 15.4-8-1-0.5-3.9 1-6.8 2.8l-8.6 5.2z"/>
  <path class="cls-25" d="m93.4 113.4c2.2-1 12.7-6.2 14.7-7.9-4 1.5-12.5 3.6-14.7 7.1v0.8z"/>
  <path class="cls-32" d="m60.5 109.5 11.4-7.6"/>
  <path class="cls-32" d="m62.4 110.4 11.1-7.4"/>
  <path class="cls-32" d="m64.1 111.4 10.9-7.5"/>
  <path class="cls-32" d="m66.1 112.6 10.5-7.9"/>
  <path class="cls-32" d="m67.7 113.5 10.4-7.8"/>
  <path class="cls-32" d="m69.6 114.5 10.4-7.6"/>
  <path class="cls-32" d="m71.5 115.6 10.1-7.7"/>
  <path class="cls-32" d="m73.6 116.6 9.9-7.7"/>
  <path class="cls-32" d="m75.5 117.6 10-7.7"/>
  <path class="cls-32" d="m77.1 118.6 10.3-7.7"/>
  <path class="cls-32" d="m79 119.6 10-7.7"/>
  <path class="cls-26" d="m74.6 101.1c3-1.2 6.3-5 15.3-5.5-5.8 1.5-11.5 3.3-13.3 5.8l-2-0.3z"/>
  <path class="cls-32" d="m76.6 101.4c2.9-2.7 8.3-4.5 14.6-5.3"/>
  <path class="cls-32" d="m78 101.6c3.2-2 6.5-3.7 14.5-4.7"/>
  <path class="cls-32" d="m79.5 101.9c3.6-2.4 6.9-3.3 14.1-4.5"/>
  <path class="cls-32" d="m80.6 102.4c3.6-2.2 7.4-3.3 14.5-4.5"/>
  <path class="cls-32" d="m82.4 103c3.6-1.5 7.6-3.1 14-4.4"/>
  <path class="cls-32" d="m83.9 103.5c3-1.5 7.6-2.9 13.7-4.4"/>
  <path class="cls-32" d="m85.5 104.4c3.6-1.8 7.9-3 13.5-4.4"/>
  <path class="cls-32" d="m87 105.1c3.6-1.5 7.7-3 13.1-4.4"/>
  <path class="cls-32" d="m88.5 105.9c3.6-1.5 8.4-3.2 12.9-4.4"/>
  <path class="cls-32" d="m90 106.7c3.6-1.6 8-3 12.6-4.5"/>
  <path class="cls-32" d="m91.5 107.5c3.6-1.5 7.6-3 12.5-4.5"/>
  <path class="cls-32" d="m92.9 108.4c2.8-1.4 8.1-3 12.5-4.5"/>
  <path class="cls-32" d="m94.1 109.1c2.5-1.4 8.6-3.1 12.6-4.4"/>
  <path class="cls-26" d="m77.4 102.1 3.1-0.5c1.1 0 7 2.9 10 5.4-3.4-1.9-8-4.1-13.1-4.9z"/>
  <path class="cls-32" d="m77.6 102.2c1.8-0.1 2.9 0.5 4.6 1.7"/>
  <path class="cls-32" d="m79 102.4c1.2-0.3 3 1 4.1 2"/>
  <path class="cls-32" d="m81.1 102.5c1.1-0.3 2.5 1.1 3.5 2.2"/>
  <path class="cls-32" d="m82.9 103c1.1-0.3 3 1.4 3.7 2.4"/>
  <path class="cls-32" d="m83.5 105.6c1.5-1.5 3-1.7 6 0.6"/>
  <path class="cls-32" d="m85.6 106.5c0.9-1 2.5-1.9 5.4 0.5"/>
  <path class="cls-32" d="m86.4 107.5c1.2-1 2-1.6 4.8 0.4"/>
  <path class="cls-32" d="m87.9 108.2c1.1-1 2.1-1.7 4.3 0.3"/>
  <path class="cls-32" d="m89.1 108.9c1.5-1.2 2.1-0.7 4 0.6"/>
  <path class="cls-32" d="m90.2 109.6c1.3-1 2.2-0.5 3.9 0.8"/>
  <path class="cls-13" d="m23.4 31.6 31.6-16.7c0.6-0.3 1-0.3 1 0.7"/>
  <path class="cls-13" d="m99.9 43.1v-13.7c0-0.8 0.3-1.5 0.8-1.8"/>
  <path class="cls-13" d="m121.4 17.4c0.1-0.2 0.1 0 0.1 0 0.1 0 0 13.7 0 13.7 0 1-0.4 1.5-1.1 1.8"/>
  <path class="cls-13" d="m16.6 109.1v-21.1c0-0.5 0.5-0.8 1.1-0.6"/>
  <path class="cls-13" d="m43.5 117.9 0.4-0.3 0.1-15.6c0-0.5-0.4-1-0.9-1.3"/>
  <path class="cls-13" d="m102.2 91.5 9.2-4.9c0.2-0.2 0.7-0.2 1.1 0l14.7 7.8c0.4 0.2 0.4 0.7-0.1 1l-9.6 5.2c-0.1 0.1-0.6 0-0.9-0.1l-14.2-7.9c-0.9-0.2-0.8-0.9-0.2-1.1z"/>
  <path class="cls-26" d="m104.4 90.5 7-3.4 9.3 4.5c1.7 0.8 0.7 3-1.2 3.8-1.4 0.5-3.9 0.3-5.5-0.4l-9.6-4.5z"/>
  <path class="cls-26" d="m106.6 91.4 4.8-1.9 4.3 2c0.9-0.1 1 0.4 0.4 0.9l-2.5 2-7-3z"/>
  <path class="cls-26" d="m118.1 140.6 0.1 13.3 0.7 0.7 32.1-18 0.5-2.1v-12.5l-0.5-0.9-27.6 15.3-4.4 3.1-0.9 1.1z"/>
  <path class="cls-28" d="m118.1 140.6 0.1 13.5 0.7 0.5 32-18 0.6-2.1v-12.6l-0.5-0.8-32 18.4-0.9 1.1z"/>
  <path class="cls-13" d="m118.2 154.1-0.1-13.2c0-0.7 0.4-1.3 0.9-1.4"/>
  <path class="cls-21" d="m121 148.9 28.4-16.9"/>
  <path class="cls-12" d="m132.6 138.4 14.8-7.9-14 7.6-0.8 0.3z"/>
  <path class="cls-21" d="m121.5 141.6 25.9-15.4"/>
  <path class="cls-12" d="m121.4 144.4 0.2-1.8 0.3-0.7 0.2 1 0.6-0.8 0.3 6-1.6-3.7z"/>
  <path class="cls-19" d="m121.9 143.9 0.6-0.8 0.9-0.2 1.3-1 1.4-0.7 1.1-1.6-4.7 2.9-0.6 1.4z"/>
</svg>




