<svg xmlns="http://www.w3.org/2000/svg" viewBox="0 0 200 185.5">
<!-- SVG created with Arrow, by QuiverAI (https://quiver.ai) -->
  <style type="text/css">.cls-0 {fill:#21272E;}
.cls-1 {fill:url(#SVGID_1_);}
.cls-2 {fill:#242529;}
.cls-3 {fill:#655147;}
.cls-4 {fill:#A98871;}
.cls-5 {fill:#3C4149;}
.cls-6 {fill:none;stroke:#A98871;stroke-width:0.1;stroke-miterlimit:10;}
.cls-7 {fill:#FFFFFF;}
.cls-8 {fill:none;stroke:#D0D2D3;stroke-width:0.1;stroke-miterlimit:10;}
.cls-9 {fill:none;stroke:#F4D5BA;stroke-width:0.1;stroke-miterlimit:10;}
.cls-10 {fill:#474950;}
.cls-11 {fill:url(#SVGID_2_);}
.cls-12 {fill:url(#SVGID_3_);}
.cls-13 {fill:#191A1E;}
.cls-14 {fill:#515963;}
.cls-15 {fill:#C7A68D;}
.cls-16 {fill:url(#SVGID_4_);}
.cls-17 {fill:url(#SVGID_5_);}
.cls-18 {fill:url(#SVGID_6_);}
.cls-19 {fill:none;stroke:#C7A68D;stroke-width:0.1;stroke-miterlimit:10;}
.cls-20 {fill:#595F67;}
.cls-21 {fill:#E7CAB5;}
.cls-22 {fill:#1B1D24;}
.cls-23 {fill:#C2D3DB;}
.cls-24 {fill:none;stroke:#595F67;stroke-width:0.1;stroke-miterlimit:10;}
.cls-25 {fill:#495159;}
.cls-26 {fill:#525961;}
.cls-27 {fill:url(#SVGID_7_);}
.cls-28 {fill:none;stroke:#626B73;stroke-width:0.1;stroke-miterlimit:10;}
.cls-29 {fill:#2D323A;}
.cls-30 {fill:url(#SVGID_8_);}
.cls-31 {fill:none;stroke:#A3A9AF;stroke-width:0.1;stroke-miterlimit:10;}
.cls-32 {fill:none;stroke:#50575E;stroke-width:0.1;stroke-miterlimit:10;}
.cls-33 {fill:#626B73;}
.cls-34 {fill:#403C3B;}
.cls-35 {fill:#A68468;}
.cls-36 {fill:none;stroke:#0D0E13;stroke-width:0.5;stroke-linecap:round;stroke-miterlimit:10;}
.cls-37 {fill:none;stroke:#56646B;stroke-width:0.8682;stroke-linecap:round;stroke-miterlimit:10;}
.cls-38 {fill:none;stroke:#616C73;stroke-width:0.8682;stroke-linecap:round;stroke-miterlimit:10;}
.cls-39 {opacity:0.41;fill:url(#SVGID_9_);enable-background:new    ;}</style>
  <rect class="cls-0" width="200" height="185.3"/>
  <linearGradient id="SVGID_1_" x1="13.2" x2="180.1" y1="52.25" y2="52.25" gradientTransform="matrix(1 0 0 -1 0 188)" gradientUnits="userSpaceOnUse">
    <stop stop-color="#242529" offset="0"/>
    <stop stop-color="#0D0D0D" offset=".5"/>
    <stop stop-color="#242529" offset="1"/>
  </linearGradient>
  <polygon class="cls-1" points="13.2 127.8 96.6 176.4 180.1 128.4 96.8 84.7"/>
  <polygon class="cls-2" points="13.2 127.7 13.2 128.8 96.6 176.4 180.1 129 180.1 128.1 96.6 175.7"/>
  <polygon class="cls-3" points="13.2 127.7 13.2 128.8 96.6 175 96.6 176.4 13.2 128.8"/>
  <polygon class="cls-4" points="96.6 175 180.1 128.1 180.1 129 96.6 176.4"/>
  <linearGradient id="SVGID_2_" x1="13.3" x2="180.1" y1="66.05" y2="66.05" gradientTransform="matrix(1 0 0 -1 0 188)" gradientUnits="userSpaceOnUse">
    <stop stop-color="#3A434C" offset="0"/>
    <stop stop-color="#242529" offset="1"/>
  </linearGradient>
  <polygon class="cls-11" points="13.3 118.7 96.6 167.9 180.1 119.3 96.8 76.1"/>
  <polygon class="cls-2" points="13.3 118.6 13.3 119.5 96.6 167.9 180.1 119.6 180.1 119.3 96.6 167.4"/>
  <linearGradient id="SVGID_3_" x1="13.6" x2="180.1" y1="79.35" y2="79.35" gradientTransform="matrix(1 0 0 -1 0 188)" gradientUnits="userSpaceOnUse">
    <stop stop-color="#242529" offset="0"/>
    <stop stop-color="#404145" offset=".5"/>
    <stop stop-color="#242529" offset="1"/>
  </linearGradient>
  <polygon class="cls-12" points="13.6 111.4 96.6 159.3 180.1 112 97 67.9"/>
  <polygon class="cls-3" points="13.6 111.1 13.6 111.8 96.6 159.3 96.6 159.3 180.1 112.4 180.1 111.8 96.6 158.3"/>
  <polygon class="cls-4" points="96.6 158.3 180.1 111.8 180.1 112.4 96.6 159.3"/>
  <polygon class="cls-4" points="184.4 71.9 184.4 73.1 193.2 67.6 193.2 66.9"/>
  <polygon class="cls-3" points="170 54.9 170 55.9 184.4 73.1 184.4 71.9"/>
  <linearGradient id="SVGID_4_" x1="170" x2="193.2" y1="123.5" y2="123.5" gradientTransform="matrix(1 0 0 -1 0 188)" gradientUnits="userSpaceOnUse">
    <stop stop-color="#3A4148" offset="0"/>
    <stop stop-color="#48525B" offset="1"/>
  </linearGradient>
  <polygon class="cls-16" points="170 53.4 193.2 66.9 184.4 71.9 170 64.2"/>
  <polyline class="cls-6" points="188.4 65.2 191.2 66.8 184.4 70.9 181.9 69.6"/>
  <line class="cls-9" x1="173.2" x2="182.9" y1="59.2" y2="65.6"/>
  <polygon class="cls-4" points="189.7 101.1 189.7 102.1 198.4 96.7 198.4 96.1"/>
  <polygon class="cls-3" points="175.3 84.1 175.3 85.1 189.7 102.1 189.7 101.1"/>
  <linearGradient id="SVGID_5_" x1="175.3" x2="198.5" y1="94.2" y2="94.2" gradientTransform="matrix(1 0 0 -1 0 188)" gradientUnits="userSpaceOnUse">
    <stop stop-color="#3A4148" offset="0"/>
    <stop stop-color="#48525B" offset="1"/>
  </linearGradient>
  <polygon class="cls-17" points="175.3 82.7 198.5 96.1 189.7 101.1 175.3 93.4"/>
  <polyline class="cls-6" points="187.7 98.8 190 100.1 197 96.1 194.6 94.6"/>
  <line class="cls-9" x1="180.5" x2="188.1" y1="90.2" y2="94.8"/>
  <polygon class="cls-3" points="10.5 92.3 10.5 93.3 22.1 87.3 22.1 86.3"/>
  <polygon class="cls-2" points="1.9 87.4 1.9 88 10.5 93.3 10.5 92.3"/>
  <linearGradient id="SVGID_6_" x1="1.9" x2="22.1" y1="102.2" y2="102.2" gradientTransform="matrix(1 0 0 -1 0 188)" gradientUnits="userSpaceOnUse">
    <stop stop-color="#3A4148" offset="0"/>
    <stop stop-color="#48525B" offset="1"/>
  </linearGradient>
  <polygon class="cls-18" points="1.9 87.4 11.9 81.7 22.1 77.4 22.1 86.4 10.5 92.3"/>
  <polyline class="cls-6" points="13.4 84.5 10.9 85.8 10.9 91.6 13.1 90.1"/>
  <line class="cls-9" x1="19.3" x2="11.7" y1="81.5" y2="86.1"/>
  <polygon class="cls-3" points="18.3 41.7 18.3 42.6 39.5 32.2 39.5 31.3"/>
  <polygon class="cls-2" points="9.6 36.8 9.6 37.6 18.3 42.6 18.3 41.7"/>
  <polygon class="cls-20" points="9.6 36.9 31.1 24.6 42.1 30 39.5 31.3 18.3 41.7"/>
  <polyline class="cls-8" points="28.7 27.2 31.3 25.7 38.4 29.4"/>
  <line class="cls-9" x1="19" x2="22.5" y1="40.9" y2="38.9"/>
  <line class="cls-9" x1="19.7" x2="29" y1="35.8" y2="31.1"/>
  <polygon class="cls-15" points="43 37.9 43 38.6 66.1 26.1 66.1 25.3"/>
  <polygon class="cls-3" points="33.3 32.7 33.3 33.5 43 38.6 43 37.9"/>
  <polygon class="cls-20" points="33.3 32.8 56.3 20.1 66.1 25.3 43 37.9"/>
  <polyline class="cls-8" points="53.6 22.6 56.3 21.2 63.4 25.3 61.1 26.5"/>
  <line class="cls-9" x1="42.9" x2="47.3" y1="36.7" y2="34.6"/>
  <line class="cls-9" x1="44.4" x2="53.8" y1="31.1" y2="26.6"/>
  <polygon class="cls-3" points="13.2 47.3 13.2 47.9 15.2 48.1 15.2 47.4"/>
  <linearGradient id="SVGID_7_" x1="13.2" x2="96.3" y1="118.4" y2="118.4" gradientTransform="matrix(1 0 0 -1 0 188)" gradientUnits="userSpaceOnUse">
    <stop stop-color="#684C3B" offset="0"/>
    <stop stop-color="#B4988B" offset=".5"/>
    <stop stop-color="#897572" offset="1"/>
  </linearGradient>
  <polygon class="cls-27" points="13.2 47.3 96.3 2.2 96.3 3.1 14 47.9 14 111 13.2 111.9"/>
  <polygon class="cls-4" points="96.3 2.2 180.1 47.4 179.1 47.9 96.3 3.1"/>
  <linearGradient id="SVGID_8_" x1="14" x2="179.5" y1="118" y2="118" gradientTransform="matrix(1 0 0 -1 0 188)" gradientUnits="userSpaceOnUse">
    <stop stop-color="#272A30" offset="0"/>
    <stop stop-color="#202329" offset=".5"/>
    <stop stop-color="#2E3138" offset="1"/>
  </linearGradient>
  <polygon class="cls-30" points="14 47.9 96.3 3 179.5 47.9 179.5 111.9 96.5 151 14 111.1"/>
  <polyline class="cls-31" points="14 111 96.5 156.1 179.5 111.9"/>
  <polyline class="cls-32" points="96.3 3.1 96.3 46.6 179.5 91.8"/>
  <polygon class="cls-3" points="179.5 47.6 180.1 47.4 180.1 112.3 179.5 111.9"/>
  <polygon class="cls-4" points="13.2 111.9 14 111.1 96.6 151 96.6 151.5"/>
  <polygon class="cls-3" points="96.6 151 96.6 151.5 125 136.3 125 135.3"/>
  <polygon class="cls-3" points="145.5 111.5 145.5 112.4 167.7 111.4 167.7 109.9"/>
  <polygon class="cls-4" points="125 134.6 125 135.9 148.4 122.2 148.4 120.8"/>
  <polygon class="cls-2" points="116.1 128.4 116.1 129.1 125 134.3 125 133.6"/>
  <linearGradient id="SVGID_9_" x1="116.1" x2="148.4" y1="63.65" y2="63.65" gradientTransform="matrix(1 0 0 -1 0 188)" gradientUnits="userSpaceOnUse">
    <stop stop-color="#616669" offset="0"/>
    <stop stop-color="#4D5052" offset="1"/>
  </linearGradient>
  <polygon class="cls-39" points="116.1 128.4 138.6 115.5 148.4 120.7 125 133.6"/>
  <polyline class="cls-8" points="135.9 117.7 138.7 116.3 146.5 120.7 144.8 121.8"/>
  <line class="cls-9" x1="125.5" x2="129" y1="132.9" y2="131.1"/>
  <line class="cls-9" x1="126.7" x2="135.9" y1="126.4" y2="121.7"/>
  <polygon class="cls-33" points="95.4 14.1 95.5 14.6 35.6 45.9 35.6 45.4"/>
  <polygon class="cls-3" points="34.7 46.2 21.9 53.3 22.4 53.9 35.6 46.6 35.6 45.9"/>
  <polygon class="cls-26" points="22.4 53.9 21.9 53.3 21.9 108 22.4 108.4"/>
  <linearGradient id="SVGID_10_" x1="15.2" x2="74.4" y1="116.4" y2="116.4" gradientTransform="matrix(1 0 0 -1 0 188)" gradientUnits="userSpaceOnUse">
    <stop stop-color="#242529" offset="0"/>
    <stop stop-color="#615B57" offset=".4831"/>
    <stop stop-color="#66777C" offset="1"/>
  </linearGradient>
  <polygon points="15.2 48.3 74.4 28.8 74.4 77.6 22.4 108.4 15.2 110.5" fill="url(#SVGID_10_)"/>
  <polygon class="cls-4" points="42.1 61.5 66.5 48.4 66.5 64.9 42.5 78.8"/>
  <polygon class="cls-26" points="39.4 60.3 75.8 41.5 75.8 67.6 42.5 85.4"/>
  <linearGradient id="SVGID_11_" x1="42.1" x2="66.7" y1="125.6" y2="125.6" gradientTransform="matrix(1 0 0 -1 0 188)" gradientUnits="userSpaceOnUse">
    <stop stop-color="#957964" offset="0"/>
    <stop stop-color="#C2B2AD" offset="1"/>
  </linearGradient>
  <path d="m42.5 61.9 23.8-13.5 0.4 0.2-24.6 12.9 0.4 0.4z" fill="url(#SVGID_11_)"/>
  <path class="cls-21" d="m42.5 61.9 23.9-13.3 0.3 0.2-0.1 16.1-24.1 13.9v-16.9z"/>
  <line class="cls-9" x1="61.2" x2="65.2" y1="53.2" y2="51.1"/>
  <line class="cls-8" x1="47.4" x2="61.8" y1="66" y2="58.1"/>
  <line class="cls-9" x1="51.7" x2="57.9" y1="63.7" y2="59.4"/>
  <line class="cls-9" x1="50.5" x2="57.3" y1="67.3" y2="63.6"/>
  <line class="cls-9" x1="48.5" x2="50.7" y1="65.6" y2="64.3"/>
  <line class="cls-8" x1="62.5" x2="65.2" y1="65.6" y2="63.9"/>
  <text class="cls-7" transform="matrix(.8734 -.487 0 1 43.99 63.6)" font-family="'Montserrat-Black'" font-size="1.016px">نبd7777774444444444444444444444444</text>
  <line class="cls-8" x1="69.4" x2="73.5" y1="64.1" y2="61.6"/>
  <polyline class="cls-9" points="62.7 74.4 75.8 67 75.8 66.9"/>
  <polygon class="cls-13" points="92.9 18.8 93.5 18.5 152.6 50.2 152.6 79.9 92.9 49.9"/>
  <polygon class="cls-25" points="98.2 17.2 98.6 17 135.5 36.9 134.6 37.6 98.2 17.6"/>
  <polygon class="cls-25" points="151.8 46.2 167.9 54 167.3 54.4 151.1 46.6"/>
  <linearGradient id="SVGID_12_" x1="93.1" x2="152.6" y1="111.6" y2="111.6" gradientTransform="matrix(1 0 0 -1 0 188)" gradientUnits="userSpaceOnUse">
    <stop stop-color="#16191E" offset="0"/>
    <stop stop-color="#485058" offset="1"/>
  </linearGradient>
  <polygon points="93.1 18.8 152.6 50.7 152.6 79.7 93.1 48.4" fill="url(#SVGID_12_)"/>
  <polygon class="cls-4" points="148.4 48.6 160.6 54.9 160.6 91.1 159.8 91.6 159.8 55.1 148.4 49"/>
  <polygon class="cls-3" points="160.1 55.1 160.6 54.6 160.6 91.1 160.1 91.6"/>
  <linearGradient id="SVGID_13_" x1="144.9" x2="167.7" y1="95.2" y2="95.2" gradientTransform="matrix(1 0 0 -1 0 188)" gradientUnits="userSpaceOnUse">
    <stop stop-color="#1A1B1E" offset="0"/>
    <stop stop-color="#242529" offset="1"/>
  </linearGradient>
  <polygon points="144.9 65.6 167.7 54.6 167.7 111 145.5 112" fill="url(#SVGID_13_)"/>
  <polygon class="cls-13" points="152.4 61.6 152.6 61.4 152.6 114.1 152.1 113.9"/>
  <polygon class="cls-22" points="82.6 77.6 90.9 73.1 112.5 85.1 104.1 89.9"/>
  <polygon class="cls-23" points="82.3 33.1 82.6 32.9 144.1 66.9 144.1 112 82.3 77.9"/>
  <polygon class="cls-21" points="82.3 77.8 82.3 33.4 127.4 83.1 127.4 91.9"/>
  <polyline class="cls-21" points="95.2 65.1 94.4 74.1 114.8 84.9 114.8 80.1 95.4 65.4"/>
  <polygon class="cls-8" points="95.4 68.9 114.1 80.1 114.1 84.1 95.4 73.9"/>
  <line class="cls-9" x1="96.1" x2="99.4" y1="70.1" y2="71.9"/>
  <line class="cls-9" x1="96.1" x2="97.9" y1="71.4" y2="72.4"/>
  <line class="cls-9" x1="96.1" x2="99.6" y1="72.6" y2="74.4"/>
  <line class="cls-9" x1="100.1" x2="113.9" y1="74.4" y2="82.4"/>
  <polygon class="cls-25" points="83.5 24.4 84 23.9 152.6 61.4 152.4 61.9 152.1 62.1 83.5 24.6"/>
  <linearGradient id="SVGID_14_" x1="83.4" x2="144.1" y1="125" y2="125" gradientTransform="matrix(1 0 0 -1 0 188)" gradientUnits="userSpaceOnUse">
    <stop stop-color="#495159" offset="0"/>
    <stop stop-color="#596169" offset="1"/>
  </linearGradient>
  <polygon points="83.4 24.6 144.1 66.9 144.1 67.6 143.5 67.9 83.4 25.4" fill="url(#SVGID_14_)"/>
  <polygon class="cls-4" points="143.5 50.9 143.5 51.9 161.5 42.2 161.5 41.6"/>
  <polygon class="cls-3" points="125.7 41.6 125.7 42.4 143.5 51.9 143.5 50.9"/>
  <polygon class="cls-20" points="125.7 41.6 144.2 32.1 161.5 41.6 143.5 51.4"/>
  <polyline class="cls-8" points="128.2 41.4 130.1 40.4 137.9 43.1 145.5 38.9"/>
  <line class="cls-9" x1="148.6" x2="154.1" y1="47.6" y2="44.9"/>
  <line class="cls-9" x1="140.1" x2="145.4" y1="42.6" y2="40.1"/>
  <polygon class="cls-4" points="43.4 169.6 43.4 170.6 53.3 165.4 53.3 164.4"/>
  <polygon class="cls-3" points="21.5 156.6 21.5 157.4 43.4 170.6 43.4 169.6"/>
  <linearGradient id="SVGID_15_" x1="21.5" x2="53.3" y1="25.95" y2="25.95" gradientTransform="matrix(1 0 0 -1 0 188)" gradientUnits="userSpaceOnUse">
    <stop stop-color="#48525B" offset="0"/>
    <stop stop-color="#3A4148" offset="1"/>
  </linearGradient>
  <polygon points="21.5 156.4 30.6 151.4 53.3 164.4 43.4 169.6" fill="url(#SVGID_15_)"/>
  <polyline class="cls-6" points="48.6 162.6 52.1 164.6 43.4 169 41 167.9"/>
  <line class="cls-9" x1="23.6" x2="27.6" y1="156.9" y2="159.1"/>
  <text class="cls-7" transform="matrix(.866 .5 -1 .866 33.17 157.8)" font-family="'Montserrat-Black'" font-size=".8399px">QLness777777777777777777777777777777777777777777</text>
  <polygon class="cls-4" points="149.1 169.6 149.1 170.4 172.1 157.4 172.1 156.6"/>
  <polygon class="cls-3" points="139.5 164.1 149.1 170.4 149.1 169.6"/>
  <linearGradient id="SVGID_16_" x1="139.5" x2="172.1" y1="26.3" y2="26.3" gradientTransform="matrix(1 0 0 -1 0 188)" gradientUnits="userSpaceOnUse">
    <stop stop-color="#48525B" offset="0"/>
    <stop stop-color="#3A4148" offset="1"/>
  </linearGradient>
  <polygon points="139.5 164.1 161.9 151.4 172.1 156.6 149.1 169.6" fill="url(#SVGID_16_)"/>
  <polyline class="cls-6" points="159.1 153.6 161.9 152.4 169.6 156.4 167.4 157.6"/>
  <line class="cls-9" x1="149.4" x2="153.6" y1="168.4" y2="166.4"/>
  <line class="cls-9" x1="150.4" x2="159.5" y1="162.6" y2="157.6"/>
  <polygon class="cls-34" points="57.5 104.6 57.5 105.1 97.9 127.1 97.9 125.9"/>
  <polygon class="cls-26" points="85.4 96.1 103.1 114.6 91.1 121.1 57.5 104.6"/>
  <polygon class="cls-33" points="82.1 96.1 102.4 114.1 91.1 120.4 82.1 115.6"/>
  <polygon class="cls-4" points="82.1 96.1 82.1 96.9 103.1 108.1 112.5 103.1 112.5 102.4 103.1 107.1"/>
  <polygon class="cls-3" points="97.9 125.9 97.9 127.1 103.1 124.1 103.1 123.1"/>
  <linearGradient id="SVGID_17_" x1="82.1" x2="103.1" y1="76.6" y2="76.6" gradientTransform="matrix(1 0 0 -1 0 188)" gradientUnits="userSpaceOnUse">
    <stop stop-color="#495159" offset="0"/>
    <stop stop-color="#596169" offset="1"/>
  </linearGradient>
  <polygon points="82.1 96.1 103.1 107.1 103.1 116.1 91.1 122.1 82.1 117.1" fill="url(#SVGID_17_)"/>
  <polygon class="cls-3" points="91.1 121.1 91.1 122.1 91.8 121.6 91.8 120.9"/>
  <polygon class="cls-4" points="104.9 113.4 105.4 113.1 105.4 127.9 104.9 127.6"/>
  <polygon class="cls-22" points="105.4 113.4 121.2 104.6 121.2 118.6 105.4 127.6"/>
  <polygon class="cls-21" points="105.4 113.4 121.2 104.6 121.1 104.9 105.6 113.6"/>
  <text class="cls-7" transform="matrix(.866 -.5 0 1 106.5 114.5)" font-family="'Montserrat-Black'" font-size=".8398px">B95%888888888888888888888888888888888888888888888888888888888888888888888</text>
  <line class="cls-9" x1="106.6" x2="112.1" y1="117.9" y2="115.4"/>
  <line class="cls-8" x1="106.6" x2="117" y1="119.9" y2="114.4"/>
  <line class="cls-9" x1="106.5" x2="111.4" y1="125.6" y2="122.9"/>
  <line class="cls-9" x1="115.9" x2="119.6" y1="120.4" y2="118.4"/>
  <polygon class="cls-4" points="124.1 102.6 124.1 117.1 124.6 116.9 124.6 102.9"/>
  <polygon class="cls-22" points="124.6 102.9 145.9 91.1 145.9 105.9 124.6 117.1"/>
  <polygon class="cls-21" points="124.1 102.6 145.6 91.1 146 91.4 124.6 102.9"/>
  <text class="cls-7" transform="matrix(.866 -.5 0 1 125.8 104.1)" font-family="'Montserrat-Black'" font-size=".8398px">99%5555555555555555555555555555555555555555555555555555555555555555555555</text>
  <line class="cls-9" x1="126.1" x2="139.1" y1="107.9" y2="100.9"/>
  <line class="cls-8" x1="126.1" x2="139.9" y1="109.4" y2="101.1"/>
  <line class="cls-9" x1="126.1" x2="131.8" y1="110.9" y2="111.9"/>
  <line class="cls-8" x1="142.2" x2="144.6" y1="94.9" y2="93.6"/>
  <line class="cls-9" x1="142.4" x2="144.4" y1="106.4" y2="105.1"/>
  <polygon class="cls-35" points="152.9 94.1 152.9 107.9 153.4 107.6 153.4 94.4"/>
  <polygon class="cls-22" points="153.4 94.4 174.1 82.4 174.1 96.1 153.4 107.6"/>
  <polygon class="cls-21" points="152.9 94.1 173.9 82.4 174.1 82.9 153.4 94.4"/>
  <text class="cls-7" transform="matrix(.866 -.5 0 1 154.4 95.68)" font-family="'Montserrat-Black'" font-size=".8398px">99%5555555555555555555555555555555555555555555555555555555555</text>
  <line class="cls-9" x1="154.6" x2="167.2" y1="100.1" y2="92.9"/>
  <line class="cls-8" x1="154.6" x2="162.9" y1="101.1" y2="96.4"/>
  <line class="cls-9" x1="154.6" x2="159.9" y1="105.9" y2="102.6"/>
  <line class="cls-8" x1="169.1" x2="172.9" y1="86.6" y2="84.6"/>
  <line class="cls-9" x1="170.4" x2="172.9" y1="96.9" y2="95.6"/>
  <polygon class="cls-22" points="51.1 85.1 73.9 97.6 73.9 111.9 51.1 99.9"/>
  <polygon class="cls-21" points="51.1 85.1 73.9 97.4 73.9 97.9 51.1 85.4"/>
  <polygon class="cls-4" points="73.4 97.6 73.9 97.4 73.9 111.9 73.4 111.9"/>
  <text class="cls-7" transform="matrix(.866 .5 -1 .866 52.27 88.08)" font-family="'Montserrat-Black'" font-size=".8399px">99%5555555555555555555555555555555555555555555555555555555555</text>
  <line class="cls-9" x1="52.5" x2="65.7" y1="92.1" y2="98.9"/>
  <line class="cls-8" x1="52.5" x2="67.5" y1="93.4" y2="101.1"/>
  <line class="cls-9" x1="52.5" x2="65.1" y1="95.1" y2="102.1"/>
  <line class="cls-8" x1="69" x2="72.4" y1="96.6" y2="98.4"/>
  <line class="cls-9" x1="69.9" x2="72.2" y1="109.1" y2="109.9"/>
  <polygon class="cls-3" points="60.4 153.6 60.4 154.4 71.8 148.4 71.8 147.9"/>
  <polygon class="cls-22" points="45.5 144.6 60.4 154.4 60.4 153.6"/>
  <linearGradient id="SVGID_18_" x1="45.5" x2="71.6" y1="40.5" y2="40.5" gradientTransform="matrix(1 0 0 -1 0 188)" gradientUnits="userSpaceOnUse">
    <stop stop-color="#48525B" offset="0"/>
    <stop stop-color="#3A4148" offset="1"/>
  </linearGradient>
  <polygon points="45.5 144.4 55.4 139.4 71.6 147.9 60.4 154.1" fill="url(#SVGID_18_)"/>
  <polyline class="cls-6" points="58.1 151.4 60.1 152.4 60.1 152.6"/>
  <polygon class="cls-4" points="35.5 131.9 35.9 131.9 57.7 144.4 57.7 157.6 57.2 157.9"/>
  <polygon class="cls-22" points="35.6 131.9 57.4 144.4 57.4 157.9 35.6 145.9"/>
  <text class="cls-7" transform="matrix(.866 .5 -1 .866 36.87 135.2)" font-family="'Montserrat-Black'" font-size=".8399px">99%5555555555555555555555555555555555555555555555555555555555</text>
  <line class="cls-9" x1="37.1" x2="50.5" y1="140.1" y2="146.9"/>
  <line class="cls-8" x1="37.1" x2="45.5" y1="141.4" y2="145.4"/>
  <line class="cls-8" x1="52.4" x2="56" y1="143.4" y2="145.6"/>
  <line class="cls-9" x1="53.5" x2="55.9" y1="154.4" y2="155.6"/>
  <polyline class="cls-36" points="152.4 112.9 152.6 113.9 152.6 114.1"/>
  <polyline class="cls-37" points="96.4 150.1 96.5 150.9 124.9 135.6"/>
  <polyline class="cls-38" points="167.7 54.6 167.7 111 148.4 121.4"/>
  <linearGradient id="SVGID_19_" x1="21.8" x2="87.7" y1="80.4" y2="80.4" gradientTransform="matrix(1 0 0 -1 0 188)" gradientUnits="userSpaceOnUse">
    <stop stop-color="#684C3B" offset="0"/>
    <stop stop-color="#B4988B" offset=".4831"/>
    <stop stop-color="#5F514D" offset="1"/>
  </linearGradient>
  <polygon points="21.9 108.4 21.9 109.1 74.4 139.9 75.4 139.9 22.4 108.4" fill="url(#SVGID_19_)"/>
  <polyline class="cls-37" points="28.9 112.4 87 81.9 88.6 81.1"/>
  <polygon class="cls-25" points="29.4 55.1 87.7 88.4 87.7 137.9 86.9 137.6 86.9 88.6 29.4 55.9"/>
  <polygon class="cls-22" points="29.4 55.1 29.4 104.6 30.1 104.9 30.1 55.4"/>
  <linearGradient id="SVGID_20_" x1="21.9" x2="87.7" y1="93.9" y2="93.9" gradientTransform="matrix(1 0 0 -1 0 188)" gradientUnits="userSpaceOnUse">
    <stop stop-color="#272A30" offset="0"/>
    <stop stop-color="#2B2E34" offset=".4831"/>
    <stop stop-color="#40474F" offset="1"/>
  </linearGradient>
  <polygon points="21.9 108.4 29.4 104.6 87.7 135.9 87.7 88.4 29.4 55.4 29.4 55.1 29.4 55.1 29.4 55.1 21.9 53.3" fill="url(#SVGID_20_)"/>
  <polyline class="cls-8" points="33.9 90.4 41.5 94.4 41.5 94.6"/>
  <polyline class="cls-8" points="33.9 61.1 96.4 95.4 96.5 136.6 33.9 105.1 33.9 90.9"/>
  <polygon class="cls-22" points="87.1 88.4 87.7 88.4 87.7 137.6 87.1 137.9"/>
  <polygon class="cls-25" points="95.9 94.4 96.5 94.4 167.7 54.6 167.7 54.6 167.3 54.4 96.4 94.1"/>
  <polygon class="cls-22" points="96 94.4 96.5 94.4 96.6 150.9 96.1 150.6"/>
  <linearGradient id="SVGID_21_" x1="96.5" x2="167.7" y1="86.2" y2="86.2" gradientTransform="matrix(1 0 0 -1 0 188)" gradientUnits="userSpaceOnUse">
    <stop stop-color="#464F57" offset="0"/>
    <stop stop-color="#242529" offset="1"/>
  </linearGradient>
  <polygon points="96.5 94.6 96.5 146.1 96.6 148.9 167.7 110.9 167.7 55.1" fill="url(#SVGID_21_)"/>
  <polyline class="cls-8" points="96.5 138.6 144.1 111.9 167.4 99.6"/>
  <line class="cls-8" x1="168" x2="179.1" y1="105.6" y2="111.9"/>
  <polygon class="cls-22" points="159.9 109.6 160.4 109.1 160.4 103.6 159.9 103.9"/>
  <polygon class="cls-4" points="160.4 103.6 160.4 109.1 160.6 108.9 160.6 103.4"/>
  <polygon class="cls-22" points="147.9 15.4 170.6 27.4 170.6 40.9 170.4 40.9 170.4 27.6 147.9 15.6"/>
  <polygon class="cls-21" points="148.8 15.4 170.9 27.4 170.6 27.4 148.8 15.6"/>
  <polygon class="cls-22" points="148.8 15.6 170.6 27.4 170.6 41.1 148.8 29.6"/>
  <text class="cls-7" transform="matrix(.866 .5 -1 .866 150.2 18.48)" font-family="'Montserrat-Black'" font-size=".8399px">99%5555555555555555555555555555555555555555555555555555555555</text>
  <line class="cls-9" x1="150.4" x2="163.6" y1="23.1" y2="30.1"/>
  <line class="cls-8" x1="150.4" x2="158.8" y1="24.1" y2="28.6"/>
  <line class="cls-8" x1="165.6" x2="169.1" y1="26.6" y2="28.4"/>
  <line class="cls-9" x1="166.6" x2="168.9" y1="38.1" y2="39.4"/>
</svg>