<svg xmlns="http://www.w3.org/2000/svg" viewBox="0 0 140 211">
<!-- SVG created with Arrow, by QuiverAI (https://quiver.ai) -->
  <style type="text/css">.cls-0 {fill:#72797C;}
.cls-1 {fill:#6A6F72;}
.cls-2 {fill:#252124;}
.cls-3 {fill:#97999D;}
.cls-4 {fill:#7C7D7E;}
.cls-5 {fill:#A08E85;}
.cls-6 {fill:#70635E;}
.cls-7 {fill:#524F51;}
.cls-8 {fill:#C9AA9D;}
.cls-9 {fill:#B59586;}
.cls-10 {fill:#AC826E;}
.cls-11 {fill:#6D5650;}
.cls-12 {fill:#8B7871;}
.cls-13 {fill:url(#SVGID_1_);}
.cls-14 {fill:#776964;}
.cls-15 {fill:#4E5056;}
.cls-16 {fill:#64686C;}
.cls-17 {fill:#838281;}
.cls-18 {fill:#444547;}
.cls-19 {fill:#A3887E;}
.cls-20 {fill:#88766E;}
.cls-21 {fill:#827F7D;}
.cls-22 {fill:#5D5D5F;}
.cls-23 {fill:#C1B5AE;}
.cls-24 {fill:#978B83;}
.cls-25 {fill:#8D8781;}
.cls-26 {fill:#A06E60;}
.cls-27 {fill:#7D5A52;}
.cls-28 {fill:#80868B;}
.cls-29 {fill:#85807A;}
.cls-30 {fill:#5C6066;}
.cls-31 {fill:#8D857D;}
.cls-32 {fill:#9C9997;}
.cls-33 {fill:#AFAEAC;}
.cls-34 {fill:#868786;}
.cls-35 {fill:#5E6568;}
.cls-36 {fill:#BD806C;}
.cls-37 {fill:#6E5955;}
.cls-38 {fill:#736D69;}
.cls-39 {fill:#B8B6B5;}
.cls-40 {fill:#7C7672;}
.cls-41 {fill:none;stroke:#F6EEE6;stroke-width:0.25;stroke-linecap:round;stroke-linejoin:round;stroke-miterlimit:10;}
.cls-42 {fill:none;stroke:#F7D0B5;stroke-width:0.25;stroke-linecap:round;stroke-linejoin:round;stroke-miterlimit:10;}
.cls-43 {fill:none;stroke:#F7D0B5;stroke-width:0.25;stroke-linecap:round;stroke-miterlimit:10;}
.cls-44 {fill:#68605B;}</style>
  <rect class="cls-0" width="140" height="211"/>
  <path d="m131.2 103.2-21.3-10.2-80.2 36.8-18.8-3.8c-3.5-1.5-7.1-5-7.1-10.5l2.9-12.5c-0.7 1.3 0.9-0.6 6.8-3.9l28.3-13.4-31 4.3c-3.5 1.6-9.1 5.3-8.8 10.3l1.1 20.3c-0.1 2.9 3 6.9 7.8 8.9l18.4 9.2 41.2 19.6 62.7 1.5 0.7-0.4c3.5-1.6 6.3-3.6 6.2-6.7l-0.1-38.8c-0.3-4.6-5.3-9.1-8.8-10.7z" fill="#797E81"/>
  <path d="m10.8 89.7 31-14.7-13.4 7.1-17.6 7.9c-3.5 1.6-7.6 4.8-7.6 9.8l0.6 16.2c-0.2-4.6-1.6-12.4 7-16.3l18.9-8.9-18.8 8.3c-3.5 1.6-7.4 4.4-7.1 9.9v11.5c-0.3-3.5-0.7-12.9-0.7-20.4 0-5 4.2-8.8 7.7-10.4z" fill="#838689"/>
  <polygon class="cls-1" points="3.6 181.5 58.7 209.5 61.1 209.5 131.2 172.1 131.2 171.1 130.2 171.1 58.7 208.5 3.6 180.5"/>
  <polygon class="cls-2" points="58.7 209.5 99.9 188.4 100.6 188.1 130.8 172.1 130.8 171 59.2 208.5"/>
  <polygon class="cls-3" points="3.3 176 58.8 204.6 100.6 182.5 100.5 181.5 93.4 177.9 59.9 193.9 13.3 171.9"/>
  <polygon class="cls-4" points="28.3 188.9 28.3 193.6 58.8 209 58.8 204.6"/>
  <polygon class="cls-1" points="59.1 196.2 59.1 191.6 92.8 173.9 100.3 182.3 58.6 204.6 58.6 209.5 100.6 187.1 100.6 182.2"/>
  <polygon class="cls-5" points="3.3 176 3.3 180.6 28.3 193.5 28.3 188.9 44.2 181.6 27.4 171.6"/>
  <polygon class="cls-6" points="101.6 186.6 131.1 171.6 131.1 166.5 101.6 181.5"/>
  <polygon class="cls-12" points="131.2 166.2 101.4 181.1 88.6 174.9 119 160.1"/>
  <radialGradient id="SVGID_1_" cx="27.53" cy="166.6" r="14.78" gradientUnits="userSpaceOnUse">
    <stop stop-color="#F7D0B5" offset="0"/>
    <stop stop-color="#B8836C" offset="1"/>
  </radialGradient>
  <polygon class="cls-13" points="6.1 164.1 6.1 168.6 25.2 178.2 39.6 168.6 50.2 172 49.6 170.6 24.9 158.1"/>
  <polygon class="cls-8" points="6.1 164.1 24.9 173.6 29.8 171.1 43.5 167.1 20.1 157.1"/>
  <polygon class="cls-8" points="3.3 176 28.3 188.9 44.2 181.6 27.4 173.6 25.2 174.9 25.2 174.1 25.2 173.6 12.1 171.1"/>
  <polygon class="cls-4" points="28.3 175.1 28.3 193.5 58.9 205.1 93.1 187.6 93.1 174.1 82.1 168.1 59.1 180.1 47.1 171.6"/>
  <polygon class="cls-17" points="28.1 174.6 59.9 191.6 92.8 173.9 81.6 168.1 59.9 179.4 47.1 171.6"/>
  <linearGradient id="SVGID_00000106122804918065272260000015648432117592387461_" x1="35.03" x2="94.41" y1="181.1" y2="181.1" gradientUnits="userSpaceOnUse">
    <stop stop-color="#737577" offset="0"/>
    <stop stop-color="#5D5F62" offset="1"/>
  </linearGradient>
  <polygon points="35 178.6 35 183.1 59.9 196.1 94.4 178.1 94.4 173.4 60 191.6 35.6 179.1" fill="url(#SVGID_00000106122804918065272260000015648432117592387461_)"/>
  <polygon class="cls-2" points="63.1 198.1 98.6 180.6 93.4 177.9 59.9 193.9 59.9 195.6"/>
  <polygon class="cls-3" points="31.6 142.1 58.9 158.5 95.4 140.6 75.4 130.1"/>
  <polygon class="cls-18" points="58.8 163.5 58.9 158.5 91.6 140.1 95.6 141.6 95.4 153.6 95.6 157.6"/>
  <polygon class="cls-5" points="12 148.9 61.1 174.1 95.4 156.1 95.4 155.6 60.6 138.6"/>
  <polygon class="cls-19" points="12 149 12 153.9 61.1 178.9 61.1 174.1"/>
  <polygon class="cls-14" points="61.1 178.9 95.4 161.1 95.4 156.1 61.1 174.1"/>
  <linearGradient id="SVGID_00000155115882371771121060000009246673991895019898_" x1="20.53" x2="39.26" y1="153.2" y2="161.4" gradientUnits="userSpaceOnUse">
    <stop stop-color="#857A76" offset="0"/>
    <stop stop-color="#B29D94" offset="1"/>
  </linearGradient>
  <path d="m12 148.9 10.9-4.9 37.2 23.6 32-13.6 3.3 1.6-34.5 18z" fill="url(#SVGID_00000155115882371771121060000009246673991895019898_)"/>
  <polygon class="cls-20" points="12 148.9 22.4 143.6 39.9 151.6 27.6 156.1"/>
  <polygon class="cls-21" points="15.2 135 29.9 127.5 43.1 132.6 34.9 139.6"/>
  <polygon class="cls-22" points="15.2 135 15.2 139.1 58.8 163.5 58.9 158.5"/>
  <polygon class="cls-23" points="19.2 117.1 19.2 122 38.1 131.5 61.6 138.6 93.1 122.6 93.1 122 78.1 115 53.9 117.1 39.9 106.6"/>
  <polygon class="cls-24" points="19.4 117.1 19.4 122 37.9 131.1 38.1 126.6"/>
  <polygon class="cls-25" points="39.1 127.1 38.9 131.6 61.6 143.9 61.6 138.6"/>
  <polygon class="cls-17" points="61.6 138.6 93.1 122.6 93.1 126.6 61.6 143.9"/>
  <polygon class="cls-26" points="15.2 134.9 15.2 139.9 58.8 163.5 58.8 158.5"/>
  <linearGradient id="SVGID_00000039847255028891144580000014890655503373732443_" x1="59.01" x2="93.01" y1="157.3" y2="147.3" gradientUnits="userSpaceOnUse">
    <stop stop-color="#6F5650" offset="0"/>
    <stop stop-color="#846C64" offset="1"/>
  </linearGradient>
  <polygon points="58.9 158.5 92.9 142.1 95.4 155.6 61.1 171.6" fill="url(#SVGID_00000039847255028891144580000014890655503373732443_)"/>
  <polygon class="cls-27" points="81.6 168.1 100.6 158.1 100.6 168.6 95.1 173.1"/>
  <polygon class="cls-10" points="94.4 166.6 115.4 149.6 127.4 155.6 100.6 169.1"/>
  <polygon class="cls-12" points="100.6 169.1 116.6 161.6 116.6 165.6 100.6 174.1"/>
  <polygon class="cls-27" points="100.6 174.1 127.4 160.4 127.4 155.6 100.6 169.1"/>
  <polygon class="cls-8" points="94.4 166.6 105.9 155.6 116.4 160.6 100.6 169.1"/>
  <polygon class="cls-19" points="94.4 166.6 104.4 161.6 116.4 160.6 116.4 164.1 100.6 172.1"/>
  <linearGradient id="SVGID_00000150804499841357012620000000419579126793485498_" x1="86.75" x2="103.2" y1="164.2" y2="164.2" gradientUnits="userSpaceOnUse">
    <stop stop-color="#79473A" offset="0"/>
    <stop stop-color="#A96D55" offset=".5"/>
    <stop stop-color="#CB9F8A" offset="1"/>
  </linearGradient>
  <polygon points="86.8 166.6 95.4 170.6 103.2 168.1 94.4 163.9" fill="url(#SVGID_00000150804499841357012620000000419579126793485498_)"/>
  <polygon class="cls-2" points="93.4 177.9 95.1 177.6 100.6 180.6 100.6 182.2"/>
  <polygon class="cls-28" points="31.1 97 41.1 91.6 68.4 116.1 94.1 102.6 79.6 95.6 58.4 102.6 46.1 88.1"/>
  <polygon class="cls-29" points="31.4 97 31.4 101.9 68.1 121.1 68.1 116.1"/>
  <polygon class="cls-30" points="68.1 116.3 94.1 102.6 94.1 107.1 68.1 121.1"/>
  <linearGradient id="SVGID_00000044863351769480692520000004457529357937620256_" x1="44.03" x2="59.08" y1="99.57" y2="94.82" gradientUnits="userSpaceOnUse">
    <stop stop-color="#7A7F84" offset="0"/>
    <stop stop-color="#717377" offset="1"/>
  </linearGradient>
  <polygon points="31.1 97 47.6 88.6 65.1 96.6 52.9 106.1" fill="url(#SVGID_00000044863351769480692520000004457529357937620256_)"/>
  <linearGradient id="SVGID_00000016061890234970909070000014847076750458649902_" x1="59.91" x2="86.41" y1="104.3" y2="98.07" gradientUnits="userSpaceOnUse">
    <stop stop-color="#777B80" offset="0"/>
    <stop stop-color="#5D5C60" offset="1"/>
  </linearGradient>
  <polygon points="52.9 106.1 68.1 116.1 94.1 102.6 79.6 95.6 63.6 100.1" fill="url(#SVGID_00000016061890234970909070000014847076750458649902_)"/>
  <polygon class="cls-25" points="38.6 78.6 57.6 68.6 82.1 78.1 69.1 89.1"/>
  <polygon class="cls-26" points="38.6 78.6 38.6 83.9 72.4 99.9 72.4 96.1"/>
  <polygon class="cls-27" points="72.4 96.1 93.9 85.1 93.9 90 72.4 101.1"/>
  <polygon class="cls-36" points="57.1 87.6 81.1 78.1 93.9 85.1 72.1 96.1"/>
  <polygon class="cls-21" points="81.6 38.1 90.4 39.1 102.6 46.6 86.1 55.6 66.1 46.1"/>
  <polygon class="cls-33" points="43.9 57 66.1 46.1 80.1 52.6 74.4 72.6 53.9 62.1"/>
  <polygon class="cls-34" points="43.9 57 44.1 61.1 74.4 77.9 74.4 72.6"/>
  <polygon class="cls-35" points="74.4 72.6 96.1 61.1 96.6 65.1 74.4 77.9"/>
  <polygon class="cls-33" points="71.1 75.6 96.1 61.1 80.1 53.1 74.4 72.6"/>
  <polygon class="cls-36" points="86.1 54.6 103.1 46.6 114.1 51.6 97.1 60.1"/>
  <polygon class="cls-27" points="97.1 60.1 114.1 52.1 114.1 58.1 97.1 64.6"/>
  <polygon class="cls-36" points="86.1 54.6 103.1 46.1 114.1 51.6 97.1 60.1"/>
  <polygon class="cls-36" points="63.1 15.1 63.2 20 88.9 32.6 88.9 27.6"/>
  <polygon class="cls-38" points="88.9 27.6 115.4 14.1 115.4 19.6 88.9 32.6"/>
  <polygon class="cls-39" points="63.1 15.1 89.9 1.9 115.4 14.1 88.9 27.6"/>
  <polygon class="cls-40" points="115.4 14.1 115.1 19.1 115.1 19.6 115.4 19.1 115.4 19.1 115.4 18.9 115.1 18.6 115.1 18.6 115.4 18.6 115.4 18.9 115.4 19.1 115.4 19.1 115.4 19.1 115.4 19.1 115.4 19.1 115.4 19.1 115.4 19.1 115.4 19.1 115.4 19.1 115.6 19.1 115.4 19 115.4 19.1 115.4 19.1 115.4 19.1 115.4 19.1 115.4 19.1 115.4 19.1 115.4 19.1 115.4 19.1 115.4 19.1 115.4 19.1 115.4 19.1 115.4 19.1 115.4 19.1 115.4 19.1 115.4 19.1 115.4 19.1 115.4 19.1 115.4 19.1 115.4 19.1 115.4 19.1 115.4 19.1 115.4 19.1 115.4 19.1 115.4 19.1 115.4 19.1 115.4 19.1 115.4 19.1 115.4 19.1 115.4 19.1 115.4 19.1 115.4 19.1 115.4 19.1 115.4 19.1 115.4 19.1 115.4 19.1 115.4 19.1 115.4 19.1 115.4 19.1 115.4 19.1 115.4 19.1 115.4 19.1 115.4 19.1 115.4 19.1 115.4 19.1 115.4 19.1 115.4 19.1 115.4 19.1 115.4 19.1 115.4 19.6 115.4 19.6 115.4 19.6 115.4 19.6 115.4 19.6 115.4 19.6 115.4 19.6 115.4 19.6 115.4 19.6 115.4 19.6 115.4 19.6 115.4 19.6 115.4 19.6 115.4 19.6 115.4 19.6 115.4 19.6 115.4 19.6 115.4 19.6 115.4 19.6 115.4 19.6 115.4 19.6 115.4 19.6 115.4 19.6 115.4 19.6 115.4 19.6 115.4 19.6 115.4 19.6 115.4 19.6 115.4 19.6 115.4 19.6 115.4 19.6 115.4 19.6 115.4 19.6 115.4 19.6 115.4 19.6 115.4 19.6 115.4 19.6 115.4 19.6 115.4 19.6 115.4 19.6 115.4 19.6 115.4 19.6 115.4 19.6 115.4 19.6 115.4 19.6 115.4 19.6 115.4 19.6 115.4 19.6 115.4 19.6 115.4 19.6 115.4 19.6 115.4 19.6 115.4 19.6 115.4 19.6 115.4 19.6 115.4 19.6 115.4 19.6 115.4 19.6 115.4 19.6 115.4 19.6 115.4 19.6 115.4 19.6 115.4 19.6 115.4 19.6 115.4 19.6 115.4 19.6 115.4 19.6 115.4 19.6 115.4 19.6 115.4 19.6 115.4 19.6 115.4 19.6 115.4 19.6 115.4 19.6 115.4 19.6 115.4 19.6 115.4 19.6 115.4 19.6 115.4 19.6 115.4 19.6 115.4 19.6 115.4 19.6 115.4 19.6 115.4 19.6 115.4 19.6 115.4 19.6 115.4 19.6 115.4 19.6 115.4 19.6 115.4 19.6 115.4 19.6 115.4 19.6 115.4 19.6 115.4 19.6 115.4 19.6 115.4 19.6 115.4 19.6 115.4 19.6 115.4 19.6 115.4 19.6 115.4 19.6 115.4 19.6 115.4 19.6 115.4 19.6 115.4 19.6 115.4 19.6 115.4 19.6 115.4 19.6 115.4 19.6 115.4 19.6 115.4 19.6 115.4 19.6 115.4 19.6 115.4 19.6 115.4 19.6 115.4 19.6 115.4 19.6 115.4 19.6 115.4 19.6 115.4 19.6 115.4 19.6 115.4 19.6 115.4 19.6 115.4 19.6 115.4 19.6 115.4 19.6 115.4 19.6 115.4 19.6 115.4 19.6 115.4 19.6 115.4 19.6 115.4 19.6 115.4 19.6 115.4 19.6 115.4 19.6 115.4 19.6 115.4 19.6 115.4 19.6 115.4 19.6 115.4 19.6 115.4 19.6 115.4 19.6 115.4 19.6 115.4 19.6 115.4 19.6 115.4 19.6 115.4 19.6 115.4 19.6 115.4 19.6 115.4 19.6 115.4 19.6 115.4 19.6 115.4 19.6 115.4 19.6 115.4 19.6 115.4 19.6 115.4 19.6 115.4 19.6 115.4 19.6 115.4 19.6 115.4 19.6 115.4 19.6 115.4 19.6 115.4 19.6 115.4 19.6 115.4 19.6 115.4 19.6 115.4 19.6 115.4 19.6 115.4 19.6 115.4 19.6 115.4 19.6 115.4 19.6 115.4 19.6 115.4 19.6 115.4 19.6 115.4 19.6 115.4 19.6 115.4 19.6 115.4 19.6 115.4 19.6 115.4 19.6 115.4 19.6 115.4 19.6 115.4 19.6 115.4 19.6 115.4 19.6 115.4 19.6 115.4 19.6 115.4 19.6 115.4 19.6 115.4 19.6 115.4 19.6 115.4 19.6 115.4 19.6 115.4 19.6 115.4 19.6 115.4 19.6 115.4 19.6 115.4 19.6 115.4 19.6 115.4 19.6 115.4 19.6 115.4 19.6 115.4 19.6 115.4 19.6 115.4 19.6 115.4 19.6 115.4 19.6 115.4 19.6 115.4 19.6 115.4 19.6 115.4 19.6 115.4 19.6 115.4 19.6 115.4 19.6 115.4 19.6 115.4 19.6 115.4 19.6 115.4 19.6 115.4 19.6 115.4 19.6 115.4 19.6 115.4 19.6 115.4 19.6 115.4 19.6 115.4 19.6 115.4 19.6 115.4 19.6 115.4 19.6 115.4 19.6 115.4 19.6 115.4 19.6 115.4 19.6 115.4 19.6 115.4 19.6 115.4 19.6 115.4 19.6 115.4 19.6 115.4 19.6 115.4 19.6 115.4 19.6 115.4 19.6 115.4 19.6 115.4 19.6 115.4 19.6 115.4 19.6 115.4 19.6 115.4 19.6 115.4 19.6 115.4 19.6 115.4 19.6 115.4 19.6 115.4 19.6 115.4 19.6 115.4 19.6 115.4 19.6 115.4 19.6 115.4 19.6 115.4 19.6 115.4 19.6 115.4 19.6 115.4 19.6 115.4 19.6 115.4 19.6 115.4 19.6 115.4 19.6 115.4 19.6 115.4 19.6 115.4 19.6 115.4 19.6 115.4 19.6 115.4 19.6 115.4 19.6 115.4 19.6 115.4 19.6 115.4 19.6 115.4 19.6 115.4 19.6 115.4 19.6 115.4 19.6 115.4 19.6 115.4 19.6 115.4 19.6 115.4 19.6 115.4 19.6 115.4 19.6"/>
  <polygon class="cls-39" points="63.1 15.1 89.9 1.9 115.4 14.1 89.1 27.6"/>
  <polygon class="cls-27" points="89.1 27.6 115.1 14.6 115.4 19.1 88.9 32.6"/>
  <polygon class="cls-36" points="63.1 15.1 88.9 27.6 88.9 32.6 63.2 20"/>
  <path class="cls-41" d="m57.6 58.6c11.5-1.5 19.5-19.5 21-31.5"/>
  <path class="cls-41" d="m57.6 63.1c6.5-4 20.5-15.5 23.5-35"/>
  <path class="cls-42" d="m58.6 63.1c7.5-1.5 21-15 23.5-33.5"/>
  <path class="cls-41" d="m58.6 62.6c9.5-5.5 21-17 25-33"/>
  <path class="cls-41" d="m66.1 46.1 14 7"/>
  <path class="cls-41" d="m76.6 51.6c7.5-5.5 11.5-15.5 12.5-22"/>
  <path class="cls-41" d="m71.1 48.6c4-3 8.5-9.5 11-20"/>
  <path class="cls-43" d="m66.1 67.1c1.3-2.5 8.5-10.5 18-17.5 4.5-3.5 9.3-13.5 10-20"/>
  <path class="cls-41" d="m68.6 76.6c-8 3-13.5 7-15 10.5-2.5 4.5-8.5 20.5-6 26.5 1.5 5 5 7 7 11"/>
  <path class="cls-43" d="m58.1 126.1c1.5-1-3-4.5-3-13 0-5 5.5-13.5 11.5-22 3.5-5-7-20-0.5-27.5 6.5-8 9-10 12.5-12.5 5-3.5 9-11.5 10.3-19"/>
  <path class="cls-43" d="m54.1 125.1c3-2-2.5-4-3.5-12-0.5-7 4.5-17 8.5-23 4.5-7.5 15-11 19-13 2.5-1 4-2.5 4.5-3.5"/>
  <path class="cls-43" d="m56.6 125.6c-0.5-3.5-5-7-5-15.5 0-4.5 5-14 9.5-21 4-5.5 14-8.5 19.5-11.5 5-2.5 7.3-6 7.4-7"/>
  <path class="cls-43" d="m51.6 123.1c2.5-1.5-3-4.5-3-13 0-4.5 5-15.5 9.5-22.5 4-5.5 8.5-8 14.5-11"/>
  <path class="cls-43" d="m49.6 122.1c-2.5-4.5-4.7-8.5-4.5-18l19-7"/>
  <path class="cls-41" d="m66.6 50.6"/>
  <path class="cls-41" d="m58.6 63.6c-1.5 8.5 1.5 16 2.5 17.5"/>
  <polygon class="cls-36" points="86.1 54.6 86.1 55.1 97.1 60.1 97.1 59.6"/>
  <polygon class="cls-32" points="95.6 59.1 97.1 59.6 97.1 60.1 95.6 59.6"/>
  <polyline class="cls-41" points="86.1 55.1 97.1 60.6 96.6 65.1"/>
  <polygon class="cls-27" points="97.1 60.6 114.1 52.1 114.1 58.1 97.1 64.6"/>
  <polyline class="cls-41" points="97.1 60.6 97.1 64.6 96.6 64.6"/>
  <polygon class="cls-25" points="81.6 78.1 94.4 84.6 115.1 73.6 98.1 64.6 83.1 71.6"/>
  <polygon class="cls-27" points="94.4 84.6 115.1 73.6 115.1 79.1 94.4 89.6"/>
  <polygon class="cls-21" points="82.1 96.1 95.4 101.6 118.1 90.1 105.9 83.6 94.4 89.1"/>
  <polygon class="cls-18" points="84.1 97.1 95.4 102.1 95.4 106.6 94.6 106.6"/>
  <polygon class="cls-22" points="95.1 101.6 118.1 90.1 118.1 95.1 95.1 106.6"/>
  <linearGradient id="SVGID_00000075142428027186114920000015437635693374348448_" x1="79.58" x2="119.6" y1="112.4" y2="106.4" gradientUnits="userSpaceOnUse">
    <stop stop-color="#64605F" offset="0"/>
    <stop stop-color="#8B8A86" offset="1"/>
  </linearGradient>
  <polygon points="79.6 115.4 94.1 121.6 119.4 108.6 105.1 101.6 95.1 106.6" fill="url(#SVGID_00000075142428027186114920000015437635693374348448_)"/>
  <polygon class="cls-21" points="94.1 121.6 119.4 108.6 119.4 113.6 93.6 126.6"/>
  <polygon class="cls-18" points="84.6 131.6 97.1 136.6 121.1 124.6 108.6 118.6 84.6 131.1"/>
  <polygon class="cls-22" points="96.6 136.6 121.1 124.6 120.6 129.6 96.6 141.6"/>
  <linearGradient id="SVGID_00000041265689352622153140000003822966506380457583_" x1="85.58" x2="124.6" y1="144.2" y2="137.7" gradientUnits="userSpaceOnUse">
    <stop stop-color="#6A544D" offset="0"/>
    <stop stop-color="#9E8D84" offset="1"/>
  </linearGradient>
  <polygon points="93.6 143.6 105.4 150.6 124.6 140.6 111.1 133.6" fill="url(#SVGID_00000041265689352622153140000003822966506380457583_)"/>
  <polygon class="cls-20" points="105.1 150.6 124.6 140.6 124.6 145.1 105.1 155.6"/>
  <polyline class="cls-41" points="42.4 134.1 34.4 138.1 30 141.6 29.6 147.1"/>
  <path class="cls-41" d="m45.1 135.1c-3.2 1.8-11.5 6-12.7 9l-0.3 6.5 0.3 21.3"/>
  <path class="cls-41" d="m47.6 136.1c-4.7 2.8-10.2 6-11.5 8.5"/>
  <path class="cls-41" d="m49.6 137.1c-3 2-6 4-6.7 6"/>
  <path class="cls-42" d="m53.6 140.1c-3.2 1.8-10.7 6.3-11 9.5-0.7 4.5-1 9-1 29"/>
  <path class="cls-41" d="m55.6 140.6c-4 1.5-12.5 6.5-13 9"/>
  <path class="cls-42" d="m52.6 139.1c-3 1-12 5.5-12.7 9.5-0.3 2.8-0.3 9.5 0 13.5"/>
  <path class="cls-42" d="m50.6 138.1c-2.2 1-6.7 3.8-7.2 4.8"/>
  <path class="cls-42" d="m48.6 137.1c-1.7 0.8-7.5 4.5-8 5.5"/>
  <polyline class="cls-43" points="42.1 125.1 59.6 116.6 60.6 117.1 47.1 123.6"/>
  <linearGradient id="SVGID_00000070835054926212318000000009958383812107911870_" x1="45.36" x2="89.36" y1="121.1" y2="117.6" gradientUnits="userSpaceOnUse">
    <stop stop-color="#A18579" offset="0"/>
    <stop stop-color="#BBB0A9" offset="1"/>
  </linearGradient>
  <polygon points="56.6 117.1 68.1 121.1 82.1 115.1 79.6 115.4 89.6 119.1 61.6 131.1 45.1 123.6" fill="url(#SVGID_00000070835054926212318000000009958383812107911870_)"/>
  <polyline class="cls-43" points="57.6 123.6 65.6 120.1 59.1 122.6"/>
  <path class="cls-43" d="m56.6 121.6 6.5-3"/>
  <path class="cls-43" d="m56.1 120.6 5.5-2.5"/>
  <polyline class="cls-41" points="79.6 115.4 93.9 122.1 93.6 126.6"/>
  <polyline class="cls-22" points="94.1 126.1 120.6 113.1 120.6 113.1 120.6 113.1 120.9 126.4 96.6 141.1 96.6 136.6"/>
  <polyline class="cls-43" points="80.6 133.4 85.6 135.4 91.4 140.1 91.6 145.1"/>
  <path class="cls-43" d="m84.1 131.6c3.5 1.8 10 6.3 10 6.8v4.7"/>
  <path class="cls-43" d="m86.9 130.1c3 1.8 9.2 5 10.5 6.5v4.8"/>
  <polygon class="cls-18" points="92.9 153.6 95.4 155.6 95.6 160.6 96.4 160.4 96.4 155.1 92.9 153.4"/>
  <polygon class="cls-16" points="92.9 173.4 95.1 172.6 95.1 177.4 92.9 178.4"/>
  <polygon class="cls-22" points="96.1 172.1 95.1 172.6 95.1 177.4 95.1 177.4 94.9 177.6 94.9 177.6 94.9 177.6 95.1 177.4 94.9 177.6 94.9 177.6 94.9 177.6 95.1 177.4 94.9 177.6 94.9 177.6 94.9 177.6 94.9 177.6 94.9 177.6 94.9 177.6 94.9 177.6 94.9 177.6 94.9 177.6 94.9 177.6 94.9 177.6 94.9 177.6 94.9 177.6 94.9 177.6 94.9 177.6 94.9 177.6 94.9 177.6 94.9 177.6 94.9 177.6 94.9 177.6 94.9 177.6 94.9 177.6 94.9 177.6 94.9 177.6 94.9 177.6 94.9 177.6 94.9 177.6 94.9 177.6 94.9 177.6 94.9 177.6 94.9 177.6 94.9 177.6 94.9 177.6 94.9 177.6 94.9 177.6 94.9 177.6 94.9 177.6 94.9 177.6 94.9 177.6 94.9 177.6 94.9 177.6 94.9 177.6 94.9 177.6 94.9 177.6 94.9 177.6 94.9 177.6 94.9 177.6 94.9 177.6 94.9 177.6 94.9 177.6 95.1 177.4 94.9 177.6 94.9 177.6 94.9 177.6 94.9 177.6 94.9 177.6 94.9 177.6 94.9 177.6 94.9 177.6 94.9 177.6 94.9 177.6 94.9 177.6 94.9 177.6 94.9 177.6 94.9 177.6 94.9 177.6 94.9 177.6 94.9 177.6 94.9 177.6 94.9 177.6 94.9 177.6 94.9 177.6 94.9 177.6 94.9 177.6 94.9 177.6 94.9 177.6 94.9 177.6 94.9 177.6 94.9 177.6 94.9 177.6 94.9 177.6 94.9 177.6 94.9 177.6 94.9 177.6 94.9 177.6 94.9 177.6 94.9 177.6 94.9 177.6 94.9 177.6 94.9 177.6 94.9 177.6 94.9 177.6 94.9 177.6 94.9 177.6 94.9 177.6 94.9 177.6 94.9 177.6 94.9 177.6 94.9 177.6 94.9 177.6 94.9 177.6 94.9 177.6 94.9 177.6 94.9 177.6 94.9 177.6 94.9 177.6 94.9 177.6 94.9 177.6 94.9 177.6 94.9 177.6 94.9 177.6 94.9 177.6 94.9 177.6 94.9 177.6 94.9 177.6 95.1 177.4 95.1 177.4 95.1 177.4 95.1 177.4 95.1 177.4 95.1 177.4 95.1 177.4 95.1 177.4 95.1 177.4 95.1 177.4 95.1 177.4 95.1 177.4 95.1 177.4 95.1 177.4 95.1 177.4 95.1 177.4 95.1 177.4 95.1 177.4 95.1 177.4 95.1 177.4 95.1 177.4 95.1 177.4 95.1 177.4 95.1 177.4 95.1 177.4 95.1 177.4 95.1 177.4 95.1 177.4 95.1 177.4 95.1 177.4 95.1 177.4 95.1 177.4 95.1 177.4 95.1 177.4 95.1 177.4 95.1 177.4 95.1 177.4 95.1 177.4 95.1 177.4 95.1 177.4 95.1 177.4 95.1 177.4 95.1 177.4 95.1 177.4 95.1 177.4 95.1 177.4 95.1 177.4 95.1 177.4 95.1 177.4 95.1 177.4 95.1 177.4 95.1 177.4 95.1 177.4 95.1 177.4 95.1 177.4 95.1 177.4 95.1 177.4 95.1 177.4 95.1 177.4 95.1 177.4 95.1 177.4 95.1 177.4 95.1 177.4 95.1 177.4 95.1 177.4 95.1 177.4 95.1 177.4 95.1 177.4 95.1 177.4 95.1 177.4 95.1 177.4 95.1 177.4 95.1 177.4 95.1 177.4 95.1 177.4 95.1 177.4 95.1 177.4 95.1 177.4 95.1 177.4 95.1 177.4 95.1 177.4 95.1 177.4 95.1 177.4 95.1 177.4 95.1 177.4 95.1 177.4 95.1 177.4 95.1 177.4 95.1 177.4 95.1 177.4 95.1 172.6"/>
  <polyline class="cls-43" points="93.6 144.1 105.1 150.6 105.1 156.1"/>
  <path class="cls-43" d="m90.4 145.6c3.5 1.8 8.5 4.5 11.2 6.5v5"/>
  <path class="cls-43" d="m87.4 147.6c2.7 1.5 7.7 3.5 10 5.5v7.5"/>
  <linearGradient id="SVGID_00000029749493197620539790000014216846809951708824_" x1="83.58" x2="92.58" y1="152.7" y2="151.2" gradientUnits="userSpaceOnUse">
    <stop stop-color="#BE9B8B" offset="0"/>
    <stop stop-color="#AC9389" offset="1"/>
  </linearGradient>
  <path d="m83.6 150.1 9.5 3.8v0.7l-9.5-4z" fill="url(#SVGID_00000029749493197620539790000014216846809951708824_)"/>
  <path class="cls-43" d="m84.6 149.1 8.3 4"/>
  <path class="cls-43" d="m84.6 149.1"/>
  <polyline class="cls-42" points="105.4 155.6 105.9 155.6 116.6 160.9 116.6 171.4"/>
  <polyline class="cls-43" points="105.4 150.6 105.4 150.6 105.1 150.6 105.1 150.6 93.9 143.9"/>
  <polygon class="cls-44" points="99.9 181.5 100.6 182.2 101.4 182 100.6 181.5"/>
  <polygon class="cls-7" points="100.6 181.5 100.6 186.6 101.4 186.1 101.4 182"/>
  <polygon class="cls-4" points="100.6 181.5 101.4 182 102.1 181.6 101.4 181.1"/>
  <polygon class="cls-7" points="101.4 181.1 101.4 186.1 101.9 185.9 101.9 181.4"/>
  <polyline class="cls-42" points="95.6 156.1 116.6 161.1 116.6 171.4"/>
  <polyline class="cls-43" points="105.4 155.6 106.1 155.6 116.6 161.1 116.6 171.4"/>
  <polygon class="cls-4" points="25.2 173.6 25.2 178.2 27.9 177.1 27.9 174.9 26.6 174.1"/>
  <polygon class="cls-35" points="25.2 173.6 25.2 178.2 24.4 177.9"/>
  <polygon class="cls-39" points="25.2 173.6 29.9 171.6 29.1 171.1 24.9 173.4"/>
  <polygon class="cls-2" points="24.9 173.4 25.2 174.1 25.2 178.2 24.7 177.9"/>
  <polygon class="cls-22" points="27.9 174.9 34.6 178.1 34.6 183.4 27.9 180.1"/>
  <polygon class="cls-2" points="34.6 178.4 34.6 183.4 35 183.1 35 178.6"/>
  <polygon class="cls-18" points="34.6 178.1 47.1 171.6 47.1 172.1 35 178.6"/>
  <polygon class="cls-44" points="37.9 126.6 41.6 125.1 42.1 125.6 38.4 127.6"/>
  <polygon class="cls-25" points="37.9 126.6 37.9 131.6 38.4 131.4 38.4 127.6"/>
  <polygon class="cls-21" points="89.1 120.1 91.6 120.6 93.6 121.6 92.6 121.9"/>
  <polygon class="cls-25" points="93.1 121.6 93.1 126.6 93.6 126.6 93.6 121.6"/>
  <polygon class="cls-29" points="93.6 102.1 94.6 102.6 94.6 106.6 95.1 106.6 95.1 102.1"/>
  <polygon class="cls-22" points="94.6 84.6 94.4 89.6 94.6 89.9"/>
  <polygon class="cls-2" points="94.6 84.6 95.1 84.6 95.1 89.6 94.6 89.9"/>
  <polygon class="cls-32" points="95.6 58.6 97.1 59.6 97.1 60.1 95.6 59.6"/>
  <polyline class="cls-43" points="97.1 60.1 97.1 64.6 97.6 64.6 97.6 60.6 97.1 60.1"/>
  <polygon class="cls-29" points="94.1 101.6 94.6 102.1 95.1 101.6 94.6 101.6"/>
  <polygon class="cls-32" points="94.6 102.1 94.6 106.6 95.1 106.6 95.1 101.6"/>
  <polyline class="cls-43" points="95.1 102.1 95.1 106.6 95.6 106.4 95.6 101.6 95.1 101.6"/>
  <polygon class="cls-25" points="93.1 121.6 93.1 126.6 93.6 126.6 93.6 121.6"/>
  <polyline class="cls-43" points="93.1 121.6 93.6 121.6 93.6 126.6 93.9 126.1 93.9 121.4 93.1 121.6"/>
  <polyline class="cls-42" points="105.4 151.6 116.6 161.1 116.6 171.4"/>
</svg>