<svg xmlns="http://www.w3.org/2000/svg" viewBox="0 0 150 163">
<!-- SVG created with Arrow, by QuiverAI (https://quiver.ai) -->
  <style type="text/css">.cls-0 {fill:#D2D2D2;}
.cls-1 {fill:url(#SVGID_1_);}
.cls-2 {fill:#59453A;}
.cls-3 {fill:url(#SVGID_2_);}
.cls-4 {fill:#A7AAAC;}
.cls-5 {fill:url(#SVGID_3_);}
.cls-6 {fill:url(#SVGID_4_);}
.cls-7 {fill:#BBBDBF;}
.cls-8 {fill:url(#SVGID_5_);}
.cls-9 {fill:url(#SVGID_6_);}
.cls-10 {fill:#945642;}
.cls-11 {fill:#D3ABA0;}
.cls-12 {fill:#FFF1EB;}
.cls-13 {fill:#C8A499;}
.cls-14 {fill:#BABCBE;}
.cls-15 {fill:#808184;}
.cls-16 {fill:#929497;}
.cls-17 {fill:#766052;}
.cls-18 {fill:#806B5D;}
.cls-19 {fill:#765A4E;}
.cls-20 {fill:url(#SVGID_7_);}
.cls-21 {fill:none;stroke:#FFFFFF;stroke-width:0.3;stroke-miterlimit:10;}
.cls-22 {fill:#FFFFFF;}
.cls-23 {fill:none;stroke:#231F20;stroke-width:0.3;stroke-linecap:round;stroke-linejoin:round;}
.cls-24 {fill:#929497;stroke:#FFFFFF;stroke-width:0.1;stroke-miterlimit:10;}
.cls-25 {fill:#C47B67;}
.cls-26 {fill:#808184;fill-opacity:0.35;}
.cls-27 {fill:none;stroke:#808184;stroke-width:0.1;stroke-miterlimit:10;}
.cls-28 {fill:url(#SVGID_8_);}
.cls-29 {fill:none;stroke:#FFFFFF;stroke-width:0.4;stroke-linecap:round;stroke-linejoin:round;}
.cls-30 {fill:#E6E7E8;fill-opacity:0.5;}
.cls-31 {fill:#FFFFFF;fill-opacity:0.5;}
.cls-32 {fill:#E2BBAF;}
.cls-33 {fill:none;stroke:#806B5D;stroke-width:0.34;stroke-linecap:round;stroke-linejoin:round;}
.cls-34 {fill:none;stroke:#59453A;stroke-width:0.47;stroke-linecap:round;stroke-linejoin:round;}
.cls-35 {fill:none;stroke:#DEC2B1;stroke-width:0.47;stroke-linecap:round;stroke-linejoin:round;}
.cls-36 {fill:#806B5D;}
.cls-37 {fill:none;stroke:#F9F5F1;stroke-width:0.4;stroke-linecap:round;stroke-linejoin:round;}</style>
  <rect class="cls-0" width="150" height="163"/>
  <radialGradient id="SVGID_1_" cx="73.9" cy="35.4" r="65.6" gradientTransform="matrix(1 0 0 -1 0 164)" gradientUnits="userSpaceOnUse">
    <stop stop-color="#9C9794" offset="0"/>
    <stop stop-color="#C3C0BE" stop-opacity="0" offset="1"/>
  </radialGradient>
  <path class="cls-1" d="m132.6 123.9c-12.8 7.4-30.8 12.1-55.6 12.1-24 0-43.8-4.6-56.2-12-7-4-8.8-6.8-8.8-5-3.9 7.4 0.1 17 3.4 20.8 9.6 10.7 30.6 18.2 56.6 19.2 26.8 1 46.9-4.8 57.2-13.3 5.8-4.8 12-14 8.8-21.7-0.4-1.1-3.5-1.3-5.4-0.1z"/>
  <path class="cls-2" d="m9.7 99c0 17.8 26.2 36 68.5 36 40.9 0 69.5-13.9 69.7-33.7v-2.3h-138.2z"/>
  <radialGradient id="SVGID_2_" cx="36.15" cy="75.4" r="19" gradientTransform="matrix(1 0 0 -1 0 164)" gradientUnits="userSpaceOnUse">
    <stop stop-color="#fff" offset="0"/>
    <stop stop-color="#E6E7E8" offset="1"/>
  </radialGradient>
  <path class="cls-3" d="m9.7 96c0 17.9 26.3 32.6 65.3 35 40.2 0.9 72.7-12.8 72.9-32.6l-0.4-5.7-136.3-3.2-1.5 6.5z"/>
  <path class="cls-4" d="m9.7 96c0 17.9 26.3 33.2 68.6 35.7 36.2 0 69.4-12.4 69.6-33.4l-0.3-5.3c-4.6-15-34.6-19-70.6-19-32 0-59 0-65.8 16.4l-1.5 5.6z"/>
  <linearGradient id="SVGID_3_" x1="10.4" x2="147.9" y1="85.7" y2="85.7" gradientTransform="matrix(1 0 0 -1 0 164)" gradientUnits="userSpaceOnUse">
    <stop stop-color="#CDCDCA" offset="0"/>
    <stop stop-color="#E6E7E8" offset="1"/>
  </linearGradient>
  <path class="cls-5" d="m78.3 59c-36.8 0-68.6 11.1-68.3 22 0 15 22.4 33.7 68.3 34 36.2 0 69.4-12.1 69.6-33.7 0.1-15.3-23.8-22.3-69.6-22.3z"/>
  <linearGradient id="SVGID_4_" x1="9.7" x2="147.9" y1="107.1" y2="107.1" gradientTransform="matrix(1 0 0 -1 0 164)" gradientUnits="userSpaceOnUse">
    <stop stop-color="#A7AAA9" offset="0"/>
    <stop stop-color="#CCCDCB" offset="1"/>
  </linearGradient>
  <path class="cls-6" d="m78.3 27.7c-28.5 0-68.6 10.1-68.6 28.9 0 12.9 12.4 20.9 17.7 23.8l21.6-6.1c-3.6-2.5-9-6.2-9-12.6s13-19.7 39-19.7 48 7 48 14.4c0 4.2-2 5.5-2.4 6.5l15.4 8.1c3.4-4 8-8 7.9-14.6-0.3-17.4-23.8-28.7-69.6-28.7z"/>
  <path class="cls-7" d="m79.9 42.6c-19.8 0-39.9 7.3-39.9 19.1 2.2-5.3 11.9-13.4 39.9-13.4s41.7 7.7 45.3 14.6c1.1-2.2 1.8-3.5 1.8-6.5 0-7.1-13.5-13.8-47.1-13.8z"/>
  <linearGradient id="SVGID_5_" x1="40" x2="127" y1="108.5" y2="108.5" gradientTransform="matrix(1 0 0 -1 0 164)" gradientUnits="userSpaceOnUse">
    <stop stop-color="#929497" offset="0"/>
    <stop stop-color="#CDCFD1" offset="1"/>
  </linearGradient>
  <path class="cls-8" d="m79.9 42.6c-19.8 0-39.9 7.3-39.9 19.1 2.2-5.3 11.9-13.3 39.9-13.3s41.7 7.6 45.3 14.5c1-2.2 1.8-3.5 1.8-6.5 0-7.1-13.5-13.8-47.1-13.8z"/>
  <linearGradient id="SVGID_6_" x1="40" x2="127" y1="100.2" y2="100.2" gradientTransform="matrix(1 0 0 -1 0 164)" gradientUnits="userSpaceOnUse">
    <stop stop-color="#E8EDF2" offset="0"/>
    <stop stop-color="#A7AAAC" offset=".52"/>
    <stop stop-color="#BABCBE" offset="1"/>
  </linearGradient>
  <path class="cls-9" d="m79.9 54.6c-19.8 0-36.7 5.7-39.9 12.4 1.3 1.6 2.4 3.2 3.9 4 2.8-3.6 13.9-10.9 36-11 12.6-0.1 23.8 2.4 27.4 4.3l17.2-1.3c0.4-0.7 1.1-1.4 2.5-4.6-3.1-2.4-13.5-3.8-47.1-3.8z"/>
  <path class="cls-10" d="m79.9 27.7v7.9c16-0.5 46.4 5.3 47 19.8 1.7-11.2-16.9-26.7-47-27.7z"/>
  <path class="cls-11" d="m80.3 27.6-0.3 5.4c10.8-0.5 39.2 2.1 41 9.4 3.4 0.6 16.4 8 16.4 13.3 0.6-13-11.8-28.1-57.1-28.1z"/>
  <path class="cls-13" d="m80.3 27.6-0.2 2.7c15 0 47.1 2.8 56.9 20.1 5.2 5.5 2.8 11.6-3 18.6l6 2c4.6-4 8-7.3 7.9-14.6-0.3-14-19.9-28.8-67.6-28.8z"/>
  <path class="cls-2" d="m9.7 58v3.4c0.3 5.8 2.9 12.6 17.7 22.3l21.6-6.1v-1.6l-21.6 5.9c-5.2-2.4-16.7-10-17.7-20.9v-3z"/>
  <path class="cls-10" d="m80 34.5v1.1c16.1-0.5 45.9 5.3 47 19.8 2.4-10.9-16.8-20.9-47-20.9z"/>
  <path class="cls-10" d="m147.9 58c0 6.4-2.5 18-27.9 27-15.7 4.8-35.9 7.6-59.9 4.8l-2.2 0.5v2.2c10.1 1.3 24.5 2.9 46.8-0.5 20.2-3.8 43.2-12.4 43.2-30.9v-3.1z"/>
  <path class="cls-12" d="m40 73.6v6.8c3.9-1.8 8.4-3.5 10-4.4l-1-1.7-9-0.7z"/>
  <path class="cls-13" d="m39 80.4c-0.6 4 4.7 14.6 20 17.6l5.2-6.8c-4.7-0.5-14.3-2.2-15.2-5.2v-11.7c-3 1.4-6.6 3.6-10 6.1z"/>
  <path class="cls-12" d="m48 73.6v2.4c4.9-3.9 15.9-8 31.9-8 6.5 0 12.1 0.6 17.1 1.5l2-1.1c-4.8-1-9.9-1.8-19.1-1.8-15.8 0-26.3 3-31.9 7z"/>
  <linearGradient id="SVGID_7_" x1="74.1" x2="114.9" y1="87.3" y2="117.1" gradientTransform="matrix(1 0 0 -1 0 164)" gradientUnits="userSpaceOnUse">
    <stop stop-color="#C2B6B3" offset="0"/>
    <stop stop-color="#D8CBC7" offset="1"/>
  </linearGradient>
  <path class="cls-20" d="m58 89.2 8.1-10.7c3.9 0.4 8.8 0.7 13.9 0.7 6.1 0 12.9-0.4 18.3-1.3l2.7 1.1 30.2-12.3-6.7-4.7c-4.4 1-17.9 4.9-23.5 6-4.4 1.4-7.6 2.4-12.3 4l0.1 9.6 7.2 3.4c-13 1.7-29.2 0.8-33.8-0.6l-4.2 4.8z"/>
  <path class="cls-13" d="m58 102 6-8c8.6 1 29.4 0.4 38-2 6.4-0.9 12.2-2.4 12.2-2.4-3.6 4-14 8.4-38.2 11.4-9.1 0.4-15.1 1.4-18 1z"/>
  <path class="cls-12" d="m137 55c-0.1 5.4-3.6 9.4-7.2 12.1l0.2 9.3-9-2.4c6-2 15.4-8 16-19z"/>
  <linearGradient id="SVGID_8_" x1="109.8" x2="137.8" y1="80.4" y2="106.4" gradientTransform="matrix(1 0 0 -1 0 164)" gradientUnits="userSpaceOnUse">
    <stop stop-color="#C7B8B4" offset="0"/>
    <stop stop-color="#DAC7C1" offset="1"/>
  </linearGradient>
  <path class="cls-28" d="m120 88c-6.6 5.6-24.1 11.4-56 11l-6 3c4.6 1 21.4 3.2 41 1 20.6-2.6 48.9-11.5 48.9-32l-0.5-5c-3.4 8.6-10.5 15.4-27.4 22z"/>
  <path class="cls-10" d="m44 70.4c0.4 0.5 1 1.1 1.4 1.2 2.1-1.7 8.2-4.2 13.2-6l-0.1-2.6c-5.5 2-11.5 4.4-14.5 7.4z"/>
  <path class="cls-13" d="m45 70.4c4-2.8 8.6-4.8 13.6-6.4l-0.1-1c-3.9 1-11.5 4.4-13.5 7.4z"/>
  <path class="cls-12" d="m44.4 91c0.2 0.4 0.2 0.4 0.6 0.6 2.4-1.7 8.1-5.7 13.5-7v-1c-3.9 1-11.5 4.4-14.1 7.4z"/>
  <path class="cls-14" d="m40 61.7c0.6-3.3 6.6-18.7 38-19.7v-7.6l-4.1-8.7c-12 0.2-42.5 3.2-53.9 16.3l-0.6 5.6c5-4.6 13.2-11.2 26.6-14.2l20 8.6c-8.9 2-25.6 8.4-26 19.7z"/>
  <path class="cls-15" d="m40 61.7c1.1-5.3 7.4-17.7 38-19.7v-7.6c-8.9 0-24 2.6-36.4 11l-12.6 4.5 9.6 6.5 1.4 5.3z"/>
  <path class="cls-16" d="m29 40v9.9l11.4-4.3-0.1-0.2-11.3-5.4z"/>
  <path class="cls-17" d="m27.4 82v1.7l21.6-6.1v-1.6l-21.6 6z"/>
  <path class="cls-18" d="m34 78 0.9 2.4 14.1-3.3v-2.8l-15 3.7z"/>
  <path class="cls-19" d="m15.6 35.1 0.4 0.3v6l-0.4-0.3v-6z"/>
  <radialGradient id="SVGID_9_" cx="35.5" cy="63.5" r="7" gradientTransform="matrix(1 0 0 -1 0 164)" gradientUnits="userSpaceOnUse">
    <stop stop-color="#FFF1EB" offset="0"/>
    <stop stop-color="#E0C7BE" offset="1"/>
  </radialGradient>
  <path d="m35 93.6c-2.8 0-6 1.4-6 5.4s3.1 4.4 6 4.4 7.4-1.4 7.4-4.4-2-5.4-7.4-5.4z" fill="url(#SVGID_9_)"/>
  <linearGradient id="SVGID_10_" x1="30.6" x2="40.9" y1="65.4" y2="65.4" gradientTransform="matrix(1 0 0 -1 0 164)" gradientUnits="userSpaceOnUse">
    <stop stop-color="#D3B7AC" offset="0"/>
    <stop stop-color="#E0C7BE" offset="1"/>
  </linearGradient>
  <path d="m30.9 99c0 1.4 0.1 2.6 3.7 2.7 2.8 0.2 6.4-0.8 6.3-2.7v-3c-0.3-1.4-3-2.4-4.9-2.4s-5.1 1-5.4 2.4l0.3 3z" fill="url(#SVGID_10_)"/>
  <path class="cls-22" d="m30.6 93.6v2.4c0 1.4 1.9 2 4 2s3.8-0.6 3.8-2l-0.1-2.4h-7.7z"/>
  <ellipse class="cls-18" cx="34.5" cy="93.5" rx="3.8" ry="2"/>
  <path class="cls-21" d="m56.6 6.4c-20.6 0-39.8 17.6-39.8 35.2 0 13.3 7.8 20.4 17.2 20.2 15.4-0.4 25 1.8 45.9 3.3 20.2 0.5 59.5-3.1 59.3-27.2 0-12.8-11.6-27-32.3-27-20.8 0-37.8 12.7-45.8 16"/>
  <path class="cls-22" d="m80.1 30.3-0.1 1.1c9.4-0.4 30.9 2 40.9 8.2l0.1-1c-9.1-5.2-26.4-8.3-40.9-8.3z"/>
  <path class="cls-27" d="m29.8 44c-6.2 4.6-7.4 8-7.4 11 0 2.4 1.2 5.4 7.2 5.4l0.2 17.6c7.6-1.6 16.8-3.6 18.6-4-4.3-3-8.4-7-8.4-12.3l0.4-16.1-11.4-5.6"/>
  <path class="cls-27" d="m58.5 45.6v39c2.4-1 4.1-1.6 4.9-1.7"/>
  <path class="cls-27" d="m49 76.4v17.2l9 4v-8.4l4.2-4.8"/>
  <path class="cls-27" d="m98 77.6c-4 0.4-9.1 1.5-18.6 1.5-5.2 0-8 0-13.3-0.5l-8.1 10.6v12.8c5.6 1 15.4 1.6 20.9 1.6 10 0 22.6-1 32-3.6 3.7-0.9 6.6-1.4 9.2-2.4"/>
  <path class="cls-27" d="m88.7 72v9.6l7.3 3.4"/>
  <path class="cls-27" d="m131.2 66.7v9.3"/>
  <linearGradient id="SVGID_11_" x1="28.7" x2="77.9" y1="124.5" y2="124.5" gradientTransform="matrix(1 0 0 -1 0 164)" gradientUnits="userSpaceOnUse">
    <stop stop-color="#CDCDCD" offset="0"/>
    <stop stop-color="#A7AAAC" offset="1"/>
  </linearGradient>
  <path d="m28.9 39.6v0.4l11.5 5.6c5.1-1.6 19.6-10.5 37.5-11.2l-3.9-8.7c-15.4 0.2-33.4 4.2-45.1 13.9z" fill="url(#SVGID_11_)"/>
  <linearGradient id="SVGID_12_" x1="33.4" x2="57.3" y1="122.9" y2="130.2" gradientTransform="matrix(1 0 0 -1 0 164)" gradientUnits="userSpaceOnUse">
    <stop stop-color="#DFDFDF" offset="0"/>
    <stop stop-color="#F1F1F2" offset=".47"/>
    <stop stop-color="#DFDFDF" offset="1"/>
  </linearGradient>
  <path d="m28.6 39.6s10-6 29-7.2v3.6c-6.6 2-12.7 5.6-15.7 9.4-0.8 0.5-1.3 0.2-1.3 0.2l-12-5.7v-0.3z" fill="url(#SVGID_12_)"/>
  <path class="cls-22" d="m28.6 39.6c2.3-1.7 10.8-5.7 29-7.2v3.6c-5.5 1.6-12.5 5.4-15.7 9.4-0.8 0.5-1.3 0.2-1.3 0.2l-12-5.7v-0.3z"/>
  <path class="cls-29" d="m29 40 11.4 5.6c0.7 0.3 1.5-0.2 1.5-0.2 4.7-2.8 14.7-9.4 36.1-11"/>
  <path class="cls-30" d="m37.6 25.6 19.3-8.5c0.3-0.1 0.7 0 0.7 0.5v11.8c0 0.2-0.1 0.5-0.4 0.6l-19.1 8c-0.2 0.1-0.5 0-0.5-0.4v-12z"/>
  <path class="cls-22" d="m39.1 26.9 3.5-1.5v1.5l-3.5 1.7v-1.7z"/>
  <path class="cls-22" d="m39.1 29.4 3.5-1.5v0.5l-3.5 1.6v-0.6z"/>
  <path class="cls-22" d="m39.1 30.9 2.3-0.9v0.4l-2.3 1.2v-0.7z"/>
  <path class="cls-22" d="m39.1 32 2.5-1.1v0.5l-2.5 1v-0.4z"/>
  <path class="cls-22" d="m38.6 34.1 18.3-7.1v0.9l-18.3 7v-0.8z"/>
  <path class="cls-22" d="m43.6 26.1 8.8-3.5v6.4l-8.8 3.6v-6.5z"/>
  <path class="cls-22" d="m45.5 31.9v-2.5c0-1 1.6-3.3 2.9-3.3 2 0.5 1.6 2.3 1.6 3.8l-4.5 2z"/>
  <path class="cls-31" d="m53.9 21.1 2.7-1.5v0.8l-2.7 1.2v-0.5z"/>
  <path class="cls-31" d="m53.9 22 2.7-1.1v4.2l-2.7 1v-4.1z"/>
  <path class="cls-32" d="m41.6 38.4 3.5 2 11.8-4.8v-0.2l-3.9-1.9-11.4 4.6v0.3z"/>
  <path class="cls-30" d="m101.1 59v11.6c0 0.5 0.3 0.5 0.8 0.5l18.7-7.7c0.4 0 0.5-0.3 0.5-0.5v-13.3c0-0.6-0.1-0.6-0.5-0.6l-19 9.4c-0.5 0.2-0.5 0.2-0.5 0.6z"/>
  <path class="cls-22" d="m114.6 54-7.7 3.9v0.7l7.7-3.6v-1z"/>
  <path class="cls-31" d="m111.6 59.4 2-1v0.5 4.1 0.1l-2 0.9v-4.6z"/>
  <path class="cls-22" d="m114.6 54 6-2.6v0.6l-6 3v-1z"/>
  <path class="cls-22" d="m114.6 55.6 6-2.7v1.1l-6 2.4v-0.8z"/>
  <path class="cls-22" d="m114.6 57.1 6-2.7v0.6l-6 2.6v-0.5z"/>
  <path class="cls-22" d="m114.6 58.6 6-2.6v0.4l-6 2.6v-0.4z"/>
  <path class="cls-22" d="m114.6 60 6-2.4v0.4l-6 2.6v-0.6z"/>
  <path class="cls-22" d="m114.6 61.4 6-2.4v0.4l-6 2.5v-0.5z"/>
  <path class="cls-22" d="m114.6 63 6-2.4v0.5l-6 2.5v-0.6z"/>
  <path class="cls-22" d="m114.6 64 6-2.1v0.5l-6 2.5v-0.9z"/>
  <path class="cls-22" d="m114.6 65 6-2v0.4l-6 2.2v-0.6z"/>
  <path class="cls-31" d="m102.6 60 1-0.4v0.4l-1 0.4v-0.4z"/>
  <path class="cls-22" d="m103.6 59.6 1-0.6v0.6l-1 0.4v-0.4z"/>
  <path class="cls-22" d="m104.6 59 0.8-0.4v0.4l-0.8 0.6v-0.6z"/>
  <path class="cls-22" d="m105.4 58.9v0.5h-0.3v-0.4l0.3-0.1z"/>
  <path class="cls-22" d="m104.9 60.4 0.7-0.4v0.4l-0.7 0.2v-0.2z"/>
  <path class="cls-22" d="m102.6 62 1-0.4v0.8l-1 0.2v-0.6z"/>
  <path class="cls-22" d="m102.6 63 2-1v0.6l-2 0.8v-0.4z"/>
  <path class="cls-22" d="m102.6 64.9 3-1.3v0.4l-3 1.4v-0.5z"/>
  <path class="cls-22" d="m102.6 65.6 1.5-0.7v0.5l-1.5 0.6v-0.4z"/>
  <path class="cls-22" d="m104.1 65 1.3-0.6v0.6l-1.3 0.4v-0.4z"/>
  <path class="cls-22" d="m114.6 54.9 6-2.5v10l-18 7.5v-3.3l12-4.6v-7.1z"/>
  <path class="cls-22" d="m114.6 55.6 3.5-1.6v1.4l-3.5 1.5v-1.3z"/>
  <path class="cls-22" d="m114.6 59 3.5-1.4v1.4l-3.5 1.6v-1.6z"/>
  <path class="cls-22" d="m114.6 61.4 3.5-1.4v1.4l-3.5 1.6v-1.6z"/>
  <path class="cls-22" d="m105.9 61.6 0.7-0.2v0.5l-0.7 0.1v-0.4z"/>
  <path class="cls-22" d="m104.1 62.4 1.3-0.5v0.1l-1.3 0.6v-0.2z"/>
  <path class="cls-31" d="m114.6 39.4v3.6c0 0.4 0 0.4 0.4 0.6l1.9 1.4c0.2 0.4 0.2 0.4 0.2 0l0.5-3.4c0-0.6 0-0.6-0.5-1l-2.1-1.6c-0.4 0-0.4 0-0.4 0.4z"/>
  <path class="cls-22" d="m115.4 48.1c0 0.9 0.5 1.9 1.2 2.3 0.5 0.5 1 0 1-0.8 0-0.6-0.5-1.6-1-2-0.7-0.5-1.2-0.2-1.2 0.5z"/>
  <path class="cls-33" d="m58.6 45.9v24.5"/>
  <path class="cls-34" d="m16.4 63.9v59"/>
  <path class="cls-35" d="m16 63.6h1.4"/>
  <linearGradient id="SVGID_13_" x1="16.5" x2="15.2" y1="41.3" y2="40.4" gradientTransform="matrix(1 0 0 -1 0 164)" gradientUnits="userSpaceOnUse">
    <stop stop-color="#766052" offset="0"/>
    <stop stop-color="#59453A" offset="1"/>
  </linearGradient>
  <path d="m16.4 122c1 0 1.7 0.4 1.7 1s-0.7 1-1.7 1-2-0.4-2-1 1-1.1 2-1z" fill="url(#SVGID_13_)"/>
  <path class="cls-34" d="m138.6 31.1v7.5"/>
  <radialGradient id="SVGID_14_" cx="16.6" cy="21.5" r="2" gradientTransform="matrix(1 0 0 -1 0 164)" gradientUnits="userSpaceOnUse">
    <stop stop-color="#9C9794" offset="0"/>
    <stop stop-color="#9C9794" stop-opacity="0" offset="1"/>
  </radialGradient>
  <path d="m16.6 141c1 0 2 0.4 2 1s-1 1-2 1-2-0.4-2-1 0.8-1 2-1z" fill="url(#SVGID_14_)"/>
  <path class="cls-22" d="m18.1 58.4c1 5.5 6.5 10.6 8.9 12.2l2.9-0.2 5.1-1.4-3.4-4.4-2.7-6.7-0.9-0.3-9.9 0.8z"/>
  <linearGradient id="SVGID_15_" x1="18.1" x2="35.1" y1="99.3" y2="99.3" gradientTransform="matrix(1 0 0 -1 0 164)" gradientUnits="userSpaceOnUse">
    <stop stop-color="#CDCDCD" offset="0"/>
    <stop stop-color="#D8D8D8" offset="1"/>
  </linearGradient>
  <path d="m18.1 58.4c1 5.2 7.3 11.2 8.9 12.2l2.9-0.2 5.2-1.4-4.1-4.6-2.1-6.5-0.9-0.3-9.9 0.8z" fill="url(#SVGID_15_)"/>
  <path class="cls-26" d="m19.4 61.9 5.7 6.1 1.8 0.9 3-0.3v1.8l-2.9 0.5c-4-2.9-7-6.3-7.6-9z"/>
  <path class="cls-27" d="m29.9 70.4v11"/>
  <path class="cls-33" d="m29.9 70 5.1-0.9"/>
  <linearGradient id="SVGID_16_" x1="32.3" x2="32.3" y1="88.8" y2="94.9" gradientTransform="matrix(1 0 0 -1 0 164)" gradientUnits="userSpaceOnUse">
    <stop stop-color="#A7AAA9" stop-opacity=".5" offset="0"/>
    <stop stop-color="#A7AAA9" offset="1"/>
  </linearGradient>
  <path d="m29.9 70.4 5.1-1v9l-5.4-2.8 0.3-5.2z" fill="url(#SVGID_16_)"/>
  <path class="cls-37" d="m27.4 61.1c3.2 1.3 5.7 0.8 11.2 0.8 13.3 0 27.8 2.7 41.3 3.2 10.5 0.3 20.7-0.5 24.7-1.1"/>
  <path class="cls-2" d="m42.4 14.6 0.5 0.3 8.2-3.3v-2.6l-8.7 5.6z"/>
  <path class="cls-18" d="m42.9 14.9v-3c0-3.9 4.1-5.9 6.1-5.9s2.1 1.6 2.1 3v2.6l-8.2 3.3z"/>
  <path class="cls-18" d="m45 4.6c0 1.4 1.4 2.5 2.4 1.8 1.2-0.4 2.6-2.4 2-3.4-0.5-2-2.4-1.4-3.4-0.4-0.6 0.4-1 1.4-1 2z"/>
  <path class="cls-2" d="m44.4 4.6c0 1.4 1 2.5 2.2 1.8 1-0.4 2.4-2.4 2-3.4-0.6-2-2.2-1.4-3.2-0.4-0.5 0.4-1 1.4-1 2z"/>
  <path class="cls-13" d="m112.6 16.9 7.8 3.1 0.2-1.4-1.6-6.2-4.9-1.4-1.5 1.4v4.5z"/>
  <path class="cls-13" d="m114.4 8.1c0 1.5 1.6 3.9 3 3.9 1.6 0 2-1.4 1.6-2.6-0.4-1.8-1.6-3.4-3-3-1 0-1.6 0.6-1.6 1.7z"/>
  <path class="cls-13" d="m117 12c2.9 1.6 3.6 3.6 3.1 7.9h0.5v-2.3c0-2.2-1.5-5.2-3.6-5.6z"/>
  <path class="cls-11" d="m120.6 28.1v14.3c3.8 0.6 12.5 8 14.5 9.6l5.5-12c-3-4-13.2-9.4-19.5-12-0.5 0-0.5 0-0.5 0.1z"/>
  <path class="cls-13" d="m112.9 12.6c0-1 0.7-1.6 2.1-1.6 1.6 0 1.9 0.6 1.9 1.6h-4z"/>
  <path class="cls-13" d="m114.1 8.1c0 1.5 1.5 3.9 2.9 3.9 1.6 0 2-1.4 1.6-2.6-0.5-1.8-1.6-3.4-3-3-1 0-1.5 0.6-1.5 1.7z"/>
  <path class="cls-13" d="m116.6 11.6c2.8 1.5 4 4 4 8.3v-2.3c0-2.2-2-5.6-4-6z"/>
  <path class="cls-22" d="m114.4 8c0 1.4 1.5 3.9 3 3.9s1.6-1.5 1.2-2.5c-0.5-1.8-1.6-3.4-3-3.4-0.7 0.4-1.2 1-1.2 2z"/>
  <path class="cls-21" d="m61.1 26.9c15.9-6.9 29-16 46-16 20.5 0 32 13 32.1 25.1 0.8 16-17.6 27.1-39.8 29"/>
  <path class="cls-22" d="m60.6 27.1c0.4 0.5 1.5 0.3 2.4-0.1s1.1-1 0.6-1.4c-0.5-0.2-1.5 0-2.2 0.3s-1.4 1-0.8 1.2z"/>
  <path class="cls-37" d="m58 89.2c5.1 0.8 12.9 1.4 20.6 1.4 22.3 0 60.3-5 68.8-25.6"/>
  <linearGradient id="SVGID_17_" x1="102.1" x2="121.8" y1="94" y2="94" gradientTransform="matrix(1 0 0 -1 0 164)" gradientUnits="userSpaceOnUse">
    <stop stop-color="#E6E3E2" offset="0"/>
    <stop stop-color="#F0EAE9" offset="1"/>
  </linearGradient>
  <path d="m102.1 72.9 15.5-8 4.2 1.7-15.8 6.8-3.9-0.5z" fill="url(#SVGID_17_)"/>
  <path class="cls-30" d="m89 71.6 11.6 7.3 0.8 0.1 29.8-12.4-7.1-4.6-15.1 3-20 6.6z"/>
  <path class="cls-24" d="m88.7 71.9 11.9 7.1c0.4 0.1 0.8 0.1 1 0 3.5-1 17-6.1 29.6-12.1"/>
  <path class="cls-27" d="m58 114 0.1 11c4.5 0.6 11 1.4 19.9 1.4s20.1-1 26.1-2.4v-0.1c5.9-0.9 13.4-3.5 16-3.9l11.1-7v-9.6"/>
  <linearGradient id="SVGID_18_" x1="104" x2="124.5" y1="40.2" y2="40.2" gradientTransform="matrix(1 0 0 -1 0 164)" gradientUnits="userSpaceOnUse">
    <stop stop-color="#945642" offset="0"/>
    <stop stop-color="#C47B67" offset="1"/>
  </linearGradient>
  <path d="m104 123.9 7.1 3.5 13-2 0.4-2.8-5.5-3c-5.6 2-11.1 3.4-15 4.3z" fill="url(#SVGID_18_)"/>
  <path class="cls-25" d="m111 127.1 0.1 2.5 13-4 0.4-2.7-13.5 4.2z"/>
  <path class="cls-26" d="m58.1 125v3c4.5 0.6 11 1.4 19.9 1.4 9 0 21.1-1 31.9-3l1.2 1v-0.5l-7-2.9c-3.1 0.6-15 2.4-26.1 2.4-8.9 0-15.4-0.8-19.9-1.4z"/>
  <linearGradient id="SVGID_19_" x1="93.6" x2="118.6" y1="43.6" y2="43.6" gradientTransform="matrix(1 0 0 -1 0 164)" gradientUnits="userSpaceOnUse">
    <stop stop-color="#9B8E8B" stop-opacity="0" offset="0"/>
    <stop stop-color="#806B5D" stop-opacity=".5" offset="1"/>
  </linearGradient>
  <path d="m93.6 115.4 10.5 8.2c4.5-0.6 10-2 14.5-3.6l-8.2-6-16.8 1.4z" fill="url(#SVGID_19_)"/>
  <path class="cls-26" d="m58.1 111.9v3.5c4.5 1 10.3 2 19 2 9 0 21-1 31.9-3.4l3.1-1-3.1-1.1c-8 1.5-18.9 3.1-31.6 3.1-8.8 0-14.8-1-19.3-3.1z"/>
  <path class="cls-27" d="m57.9 101.9v1.1c5.5 0.6 12.5 1.6 20.2 1.6 8.9 0 20-1 27.5-2.6"/>
  <linearGradient id="SVGID_20_" x1="57.9" x2="105.6" y1="59.9" y2="59.9" gradientTransform="matrix(1 0 0 -1 0 164)" gradientUnits="userSpaceOnUse">
    <stop stop-color="#B2ADAA" offset="0"/>
    <stop stop-color="#C7C2BF" offset="1"/>
  </linearGradient>
  <path d="m58 101.9v1.1c5.6 0.6 12.4 1.6 20.1 1.6 8.9 0 20-1 27.5-2.6v-0.9c-8.7 1.5-17 2.5-27.5 2.5-7.7 0-14.5-1-20.1-1.7z" fill="url(#SVGID_20_)"/>
  <linearGradient id="SVGID_21_" x1="117.8" x2="122.1" y1="27.9" y2="27.9" gradientTransform="matrix(1 0 0 -1 0 164)" gradientUnits="userSpaceOnUse">
    <stop stop-color="#59453A" offset="0"/>
    <stop stop-color="#8B6F64" offset="1"/>
  </linearGradient>
  <path d="m119.9 134.4c1.1 0 2.2 0.5 2.2 1 0 0.6-1.1 1.2-2.2 1.2-0.9 0-2-0.6-2-1.2 0-0.5 0.7-1 2-1z" fill="url(#SVGID_21_)"/>
  <path class="cls-34" d="m119.9 76.4v59.2"/>
  <path class="cls-35" d="m119.4 76.1h0.7"/>
  <linearGradient id="SVGID_22_" x1="101.2" x2="105.6" y1="89.9" y2="89.9" gradientTransform="matrix(1 0 0 -1 0 164)" gradientUnits="userSpaceOnUse">
    <stop stop-color="#E6E3E2" offset="0"/>
    <stop stop-color="#F0EAE9" stop-opacity=".5" offset="1"/>
  </linearGradient>
  <path d="m101.4 73.6-0.2 1.5 2.9-0.2 1.5-1.3-1.5-1-2.7 1z" fill="url(#SVGID_22_)"/>
  <path class="cls-2" d="m21.9 61.9 5.2 5 0.3-0.3v-2.6l-5.5-6v3.9z"/>
  <path class="cls-13" d="m25 57c1.6 2 1.9 4.4 1.9 6.4v3.2h0.5v-3.2c0-1.8-0.5-5-2.4-6.4z"/>
  <path class="cls-13" d="m23 52c-0.6 1 0 4.4 1.6 5.1 0.8 0.3 1.4-0.7 1.3-2.5-0.3-2.6-1.9-4.6-2.9-2.6z"/>
  <path class="cls-18" d="m22.1 56.9-0.1 4.7 5.1 5v-3c0-2.2-1-5.2-2.7-7.2-1.3-1.8-2.3-0.8-2.3 0.5z"/>
  <path class="cls-22" d="m23 52c-0.6 1 0 4.4 1.6 5.1 0.8 0.3 1.4-0.7 1.3-2.5-0.3-2.6-1.9-4.6-2.9-2.6z"/>
  <path class="cls-18" d="m23.4 52c-0.8 1 0 4.4 1.5 5.1 0.7 0.3 1.1-0.7 1-2.5-0.3-2.6-1.8-4.6-2.5-2.6z"/>
  <path class="cls-23" d="m77.9 34.4 0.1 0.2"/>
</svg>